<?xml version="1.0" standalone="no"?>
<!DOCTYPE svg PUBLIC "-//W3C//DTD SVG 1.1//EN" "http://www.w3.org/Graphics/SVG/1.1/DTD/svg11.dtd">
<svg width="4.8749999970675in" height="9.8749999919675in"
 viewBox="0 0 4.8749999970675 9.8749999919675"
 xmlns="http://www.w3.org/2000/svg" version="1.1"
 xmlns:xlink="http://www.w3.org/1999/xlink">
<desc>Output from Flights of Ideas SVG Sketchup Plugin</desc>

  <g id="face0" fill="none" stroke="rgb(0,0,0)" stroke-width=".001" stroke-miterlimit="4" stroke-dasharray="none" stroke-linejoin="round" stroke-linecap="round">
    <line x1="3.8749999970675" y1="4.85549999606738" x2="3.8749999970675" y2="2.01949999896011"/>
    <line x1="3.8749999970675" y1="2.01949999896011" x2="3.749999997195" y2="2.01949999896011"/>
    <line x1="3.749999997195" y1="2.01949999896011" x2="3.749999997195" y2="2.10937499886843"/>
    <line x1="3.749999997195" y1="2.10937499886843" x2="3.6249999973225" y2="2.10937499886843"/>
    <line x1="3.6249999973225" y1="2.10937499886843" x2="3.6249999973225" y2="1.76562499921906"/>
    <line x1="3.6249999973225" y1="1.76562499921906" x2="3.749999997195" y2="1.76562499921906"/>
    <line x1="3.749999997195" y1="1.76562499921906" x2="3.749999997195" y2="1.85549999912739"/>
    <line x1="3.749999997195" y1="1.85549999912739" x2="3.8749999970675" y2="1.85549999912739"/>
    <line x1="3.8749999970675" y1="1.85549999912739" x2="3.8749999970675" y2="1.0"/>
    <line x1="3.8749999970675" y1="1.0" x2="3.49999999745" y2="1.0"/>
    <line x1="3.49999999745" y1="1.0" x2="3.49999999745" y2="1.12499999987249"/>
    <line x1="3.49999999745" y1="1.12499999987249" x2="2.99999999796" y2="1.12499999987249"/>
    <line x1="2.99999999796" y1="1.12499999987249" x2="2.99999999796" y2="1.0"/>
    <line x1="2.99999999796" y1="1.0" x2="2.49999999847001" y2="1.0"/>
    <line x1="2.49999999847001" y1="1.0" x2="2.49999999847001" y2="1.12499999987248"/>
    <line x1="2.49999999847001" y1="1.12499999987248" x2="1.99999999897999" y2="1.12499999987248"/>
    <line x1="1.99999999897999" y1="1.12499999987248" x2="1.99999999898" y2="1.0"/>
    <line x1="1.99999999898" y1="1.0" x2="1.49999999949" y2="1.0"/>
    <line x1="1.49999999949" y1="1.0" x2="1.49999999949" y2="1.1249999998725"/>
    <line x1="1.49999999949" y1="1.1249999998725" x2="1.0" y2="1.1249999998725"/>
    <line x1="1.0" y1="1.1249999998725" x2="1.0" y2="1.68749999929874"/>
    <line x1="1.0" y1="1.68749999929874" x2="1.1249999998725" y2="1.68749999929874"/>
    <line x1="1.1249999998725" y1="1.68749999929874" x2="1.1249999998725" y2="2.18749999878874"/>
    <line x1="1.1249999998725" y1="2.18749999878874" x2="1.0" y2="2.18749999878874"/>
    <line x1="1.0" y1="2.18749999878874" x2="1.0" y2="2.68749999827874"/>
    <line x1="1.0" y1="2.68749999827874" x2="1.1249999998725" y2="2.68749999827874"/>
    <line x1="1.1249999998725" y1="2.68749999827874" x2="1.12499999987251" y2="3.18749999776874"/>
    <line x1="1.12499999987251" y1="3.18749999776874" x2="1.0" y2="3.18749999776874"/>
    <line x1="1.0" y1="3.18749999776874" x2="1.0" y2="3.68749999725874"/>
    <line x1="1.0" y1="3.68749999725874" x2="1.1249999998725" y2="3.68749999725874"/>
    <line x1="1.1249999998725" y1="3.68749999725874" x2="1.1249999998725" y2="4.18749999674874"/>
    <line x1="1.1249999998725" y1="4.18749999674874" x2="1.0" y2="4.18749999674874"/>
    <line x1="1.0" y1="4.18749999674874" x2="1.0" y2="4.68749999623874"/>
    <line x1="1.0" y1="4.68749999623874" x2="1.1249999998725" y2="4.68749999623874"/>
    <line x1="1.1249999998725" y1="4.68749999623874" x2="1.1249999998725" y2="5.18749999572874"/>
    <line x1="1.1249999998725" y1="5.18749999572874" x2="1.0" y2="5.18749999572874"/>
    <line x1="1.0" y1="5.18749999572874" x2="1.0" y2="5.68749999521874"/>
    <line x1="1.0" y1="5.68749999521874" x2="1.1249999998725" y2="5.68749999521874"/>
    <line x1="1.1249999998725" y1="5.68749999521874" x2="1.1249999998725" y2="6.18749999470874"/>
    <line x1="1.1249999998725" y1="6.18749999470874" x2="1.0" y2="6.18749999470874"/>
    <line x1="1.0" y1="6.18749999470874" x2="1.0" y2="6.68749999419874"/>
    <line x1="1.0" y1="6.68749999419874" x2="1.1249999998725" y2="6.68749999419874"/>
    <line x1="1.1249999998725" y1="6.68749999419874" x2="1.1249999998725" y2="7.18749999368874"/>
    <line x1="1.1249999998725" y1="7.18749999368874" x2="1.0" y2="7.18749999368874"/>
    <line x1="1.0" y1="7.18749999368874" x2="1.0" y2="7.68749999317874"/>
    <line x1="1.0" y1="7.68749999317874" x2="1.1249999998725" y2="7.68749999317874"/>
    <line x1="1.1249999998725" y1="7.68749999317874" x2="1.12499999987251" y2="8.18749999266874"/>
    <line x1="1.12499999987251" y1="8.18749999266874" x2="1.00000000000001" y2="8.18749999266874"/>
    <line x1="1.00000000000001" y1="8.18749999266874" x2="1.0" y2="8.74999999209499"/>
    <line x1="1.0" y1="8.74999999209499" x2="1.49999999949" y2="8.74999999209498"/>
    <line x1="1.49999999949" y1="8.74999999209498" x2="1.49999999949" y2="8.87499999196748"/>
    <line x1="1.49999999949" y1="8.87499999196748" x2="1.99999999898" y2="8.87499999196749"/>
    <line x1="1.99999999898" y1="8.87499999196749" x2="1.99999999898" y2="8.74999999209499"/>
    <line x1="1.99999999898" y1="8.74999999209499" x2="2.49999999847001" y2="8.74999999209498"/>
    <line x1="2.49999999847001" y1="8.74999999209498" x2="2.49999999847001" y2="8.87499999196748"/>
    <line x1="2.49999999847001" y1="8.87499999196748" x2="2.99999999796" y2="8.8749999919675"/>
    <line x1="2.99999999796" y1="8.8749999919675" x2="2.99999999796" y2="8.749999992095"/>
    <line x1="2.99999999796" y1="8.749999992095" x2="3.49999999745" y2="8.74999999209498"/>
    <line x1="3.49999999745" y1="8.74999999209498" x2="3.49999999745" y2="8.87499999196748"/>
    <line x1="3.49999999745" y1="8.87499999196748" x2="3.8749999970675" y2="8.87499999196749"/>
    <line x1="3.8749999970675" y1="8.87499999196749" x2="3.8749999970675" y2="8.0194999928401"/>
    <line x1="3.8749999970675" y1="8.0194999928401" x2="3.749999997195" y2="8.0194999928401"/>
    <line x1="3.749999997195" y1="8.0194999928401" x2="3.749999997195" y2="8.10937499274843"/>
    <line x1="3.749999997195" y1="8.10937499274843" x2="3.6249999973225" y2="8.10937499274843"/>
    <line x1="3.6249999973225" y1="8.10937499274843" x2="3.6249999973225" y2="7.76562499309905"/>
    <line x1="3.6249999973225" y1="7.76562499309905" x2="3.749999997195" y2="7.76562499309905"/>
    <line x1="3.749999997195" y1="7.76562499309905" x2="3.749999997195" y2="7.85549999300738"/>
    <line x1="3.749999997195" y1="7.85549999300738" x2="3.8749999970675" y2="7.85549999300738"/>
    <line x1="3.8749999970675" y1="7.85549999300738" x2="3.8749999970675" y2="5.0194999959001"/>
    <line x1="3.8749999970675" y1="5.0194999959001" x2="3.749999997195" y2="5.0194999959001"/>
    <line x1="3.749999997195" y1="5.0194999959001" x2="3.749999997195" y2="5.10937499580843"/>
    <line x1="3.749999997195" y1="5.10937499580843" x2="3.6249999973225" y2="5.10937499580843"/>
    <line x1="3.6249999973225" y1="5.10937499580843" x2="3.6249999973225" y2="4.76562499615906"/>
    <line x1="3.6249999973225" y1="4.76562499615906" x2="3.749999997195" y2="4.76562499615906"/>
    <line x1="3.749999997195" y1="4.76562499615906" x2="3.749999997195" y2="4.85549999606738"/>
    <line x1="3.749999997195" y1="4.85549999606738" x2="3.8749999970675" y2="4.85549999606738"/>
    <line x1="1.87499999910751" y1="8.18749999266874" x2="1.62499999936251" y2="8.18749999266874"/>
    <line x1="1.62499999936251" y1="8.18749999266874" x2="1.62499999936251" y2="7.68749999317874"/>
    <line x1="1.62499999936251" y1="7.68749999317874" x2="1.87499999910751" y2="7.68749999317874"/>
    <line x1="1.87499999910751" y1="7.68749999317874" x2="1.87499999910751" y2="8.18749999266874"/>
  </g>
</svg>
