<?xml version="1.0" standalone="no"?>
<!DOCTYPE svg PUBLIC "-//W3C//DTD SVG 1.1//EN" "http://www.w3.org/Graphics/SVG/1.1/DTD/svg11.dtd">
<svg width="9.87499999196753in" height="7.87499999400752in"
 viewBox="0 0 9.87499999196753 7.87499999400752"
 xmlns="http://www.w3.org/2000/svg" version="1.1"
 xmlns:xlink="http://www.w3.org/1999/xlink">
<desc>Output from Flights of Ideas SVG Sketchup Plugin</desc>

  <g id="face0" fill="none" stroke="rgb(0,0,0)" stroke-width=".001" stroke-miterlimit="4" stroke-dasharray="none" stroke-linejoin="round" stroke-linecap="round">
    <line x1="3.68749999725875" y1="6.74999999413502" x2="3.68749999725875" y2="6.87499999400752"/>
    <line x1="3.68749999725875" y1="6.87499999400752" x2="4.18749999674876" y2="6.87499999400752"/>
    <line x1="4.18749999674876" y1="6.87499999400752" x2="4.18749999674876" y2="6.74999999413502"/>
    <line x1="4.18749999674876" y1="6.74999999413502" x2="4.68749999623875" y2="6.74999999413502"/>
    <line x1="4.68749999623875" y1="6.74999999413502" x2="4.68749999623875" y2="6.87499999400752"/>
    <line x1="4.68749999623875" y1="6.87499999400752" x2="5.18749999572876" y2="6.87499999400752"/>
    <line x1="5.18749999572876" y1="6.87499999400752" x2="5.18749999572876" y2="6.74999999413502"/>
    <line x1="5.18749999572876" y1="6.74999999413502" x2="5.68749999521876" y2="6.74999999413502"/>
    <line x1="5.68749999521876" y1="6.74999999413502" x2="5.68749999521876" y2="6.87499999400751"/>
    <line x1="5.68749999521876" y1="6.87499999400751" x2="6.18749999470876" y2="6.87499999400752"/>
    <line x1="6.18749999470876" y1="6.87499999400752" x2="6.18749999470876" y2="6.74999999413502"/>
    <line x1="6.18749999470876" y1="6.74999999413502" x2="6.68749999419875" y2="6.74999999413502"/>
    <line x1="6.68749999419875" y1="6.74999999413502" x2="6.68749999419875" y2="6.8749999940075"/>
    <line x1="6.68749999419875" y1="6.8749999940075" x2="7.18749999368875" y2="6.8749999940075"/>
    <line x1="7.18749999368875" y1="6.8749999940075" x2="7.18749999368875" y2="6.74999999413502"/>
    <line x1="7.18749999368875" y1="6.74999999413502" x2="7.68749999317876" y2="6.74999999413502"/>
    <line x1="7.68749999317876" y1="6.74999999413502" x2="7.68749999317875" y2="6.87499999400749"/>
    <line x1="7.68749999317875" y1="6.87499999400749" x2="8.18749999266876" y2="6.87499999400748"/>
    <line x1="8.18749999266876" y1="6.87499999400748" x2="8.18749999266876" y2="6.74999999413502"/>
    <line x1="8.18749999266876" y1="6.74999999413502" x2="8.749999992095" y2="6.74999999413502"/>
    <line x1="8.749999992095" y1="6.74999999413502" x2="8.749999992095" y2="6.18749999470878"/>
    <line x1="8.749999992095" y1="6.18749999470878" x2="8.87499999196749" y2="6.18749999470879"/>
    <line x1="8.87499999196749" y1="6.18749999470879" x2="8.8749999919675" y2="5.68749999521876"/>
    <line x1="8.8749999919675" y1="5.68749999521876" x2="8.74999999209505" y2="5.68749999521877"/>
    <line x1="8.74999999209505" y1="5.68749999521877" x2="8.74999999209508" y2="5.18749999572879"/>
    <line x1="8.74999999209508" y1="5.18749999572879" x2="8.87499999196749" y2="5.18749999572875"/>
    <line x1="8.87499999196749" y1="5.18749999572875" x2="8.87499999196747" y2="4.68749999623876"/>
    <line x1="8.87499999196747" y1="4.68749999623876" x2="8.74999999209506" y2="4.68749999623875"/>
    <line x1="8.74999999209506" y1="4.68749999623875" x2="8.74999999209506" y2="4.18749999674877"/>
    <line x1="8.74999999209506" y1="4.18749999674877" x2="8.87499999196751" y2="4.18749999674878"/>
    <line x1="8.87499999196751" y1="4.18749999674878" x2="8.87499999196753" y2="3.68749999725877"/>
    <line x1="8.87499999196753" y1="3.68749999725877" x2="8.74999999209517" y2="3.68749999725877"/>
    <line x1="8.74999999209517" y1="3.68749999725877" x2="8.7499999920952" y2="3.18749999776876"/>
    <line x1="8.7499999920952" y1="3.18749999776876" x2="8.8749999919675" y2="3.18749999776876"/>
    <line x1="8.8749999919675" y1="3.18749999776876" x2="8.87499999196748" y2="2.68749999827876"/>
    <line x1="8.87499999196748" y1="2.68749999827876" x2="8.7499999920951" y2="2.68749999827877"/>
    <line x1="8.7499999920951" y1="2.68749999827877" x2="8.74999999209512" y2="2.18749999878878"/>
    <line x1="8.74999999209512" y1="2.18749999878878" x2="8.87499999196748" y2="2.18749999878878"/>
    <line x1="8.87499999196748" y1="2.18749999878878" x2="8.87499999196748" y2="1.68749999929875"/>
    <line x1="8.87499999196748" y1="1.68749999929875" x2="8.74999999209513" y2="1.68749999929876"/>
    <line x1="8.74999999209513" y1="1.68749999929876" x2="8.74999999209513" y2="1.12499999987251"/>
    <line x1="8.74999999209513" y1="1.12499999987251" x2="8.18749999266876" y2="1.1249999998725"/>
    <line x1="8.18749999266876" y1="1.1249999998725" x2="8.18749999266875" y2="1.00000000000001"/>
    <line x1="8.18749999266875" y1="1.00000000000001" x2="7.68749999317876" y2="1.00000000000004"/>
    <line x1="7.68749999317876" y1="1.00000000000004" x2="7.68749999317873" y2="1.12499999987254"/>
    <line x1="7.68749999317873" y1="1.12499999987254" x2="7.18749999368875" y2="1.12499999987254"/>
    <line x1="7.18749999368875" y1="1.12499999987254" x2="7.18749999368875" y2="1.00000000000003"/>
    <line x1="7.18749999368875" y1="1.00000000000003" x2="6.68749999419875" y2="1.0"/>
    <line x1="6.68749999419875" y1="1.0" x2="6.68749999419873" y2="1.12499999987253"/>
    <line x1="6.68749999419873" y1="1.12499999987253" x2="6.18749999470874" y2="1.12499999987254"/>
    <line x1="6.18749999470874" y1="1.12499999987254" x2="6.18749999470874" y2="1.00000000000001"/>
    <line x1="6.18749999470874" y1="1.00000000000001" x2="5.68749999521874" y2="1.00000000000001"/>
    <line x1="5.68749999521874" y1="1.00000000000001" x2="5.68749999521876" y2="1.12499999987259"/>
    <line x1="5.68749999521876" y1="1.12499999987259" x2="5.18749999572874" y2="1.1249999998726"/>
    <line x1="5.18749999572874" y1="1.1249999998726" x2="5.18749999572872" y2="1.0"/>
    <line x1="5.18749999572872" y1="1.0" x2="4.68749999623875" y2="1.0"/>
    <line x1="4.68749999623875" y1="1.0" x2="4.68749999623872" y2="1.12499999987253"/>
    <line x1="4.68749999623872" y1="1.12499999987253" x2="4.18749999674874" y2="1.12499999987252"/>
    <line x1="4.18749999674874" y1="1.12499999987252" x2="4.18749999674876" y2="1.00000000000001"/>
    <line x1="4.18749999674876" y1="1.00000000000001" x2="3.68749999725875" y2="1.00000000000003"/>
    <line x1="3.68749999725875" y1="1.00000000000003" x2="3.68749999725876" y2="1.12499999987253"/>
    <line x1="3.68749999725876" y1="1.12499999987253" x2="3.18749999776875" y2="1.12499999987254"/>
    <line x1="3.18749999776875" y1="1.12499999987254" x2="3.18749999776873" y2="1.00000000000003"/>
    <line x1="3.18749999776873" y1="1.00000000000003" x2="2.68749999827874" y2="1.00000000000001"/>
    <line x1="2.68749999827874" y1="1.00000000000001" x2="2.68749999827873" y2="1.12499999987252"/>
    <line x1="2.68749999827873" y1="1.12499999987252" x2="2.18749999878877" y2="1.1249999998725"/>
    <line x1="2.18749999878877" y1="1.1249999998725" x2="2.18749999878874" y2="1.00000000000002"/>
    <line x1="2.18749999878874" y1="1.00000000000002" x2="1.68749999929873" y2="1.00000000000003"/>
    <line x1="1.68749999929873" y1="1.00000000000003" x2="1.68749999929874" y2="1.12499999987252"/>
    <line x1="1.68749999929874" y1="1.12499999987252" x2="1.12499999987251" y2="1.12499999987252"/>
    <line x1="1.12499999987251" y1="1.12499999987252" x2="1.12499999987251" y2="1.68749999929876"/>
    <line x1="1.12499999987251" y1="1.68749999929876" x2="1.00000000000001" y2="1.68749999929876"/>
    <line x1="1.00000000000001" y1="1.68749999929876" x2="1.00000000000001" y2="2.18749999878876"/>
    <line x1="1.00000000000001" y1="2.18749999878876" x2="1.12499999987251" y2="2.18749999878876"/>
    <line x1="1.12499999987251" y1="2.18749999878876" x2="1.12499999987251" y2="2.68749999827876"/>
    <line x1="1.12499999987251" y1="2.68749999827876" x2="1.00000000000001" y2="2.68749999827876"/>
    <line x1="1.00000000000001" y1="2.68749999827876" x2="1.00000000000001" y2="3.18749999776876"/>
    <line x1="1.00000000000001" y1="3.18749999776876" x2="1.12499999987251" y2="3.18749999776876"/>
    <line x1="1.12499999987251" y1="3.18749999776876" x2="1.12499999987251" y2="3.68749999725876"/>
    <line x1="1.12499999987251" y1="3.68749999725876" x2="1.00000000000001" y2="3.68749999725876"/>
    <line x1="1.00000000000001" y1="3.68749999725876" x2="1.0" y2="4.18749999674876"/>
    <line x1="1.0" y1="4.18749999674876" x2="1.12499999987251" y2="4.18749999674876"/>
    <line x1="1.12499999987251" y1="4.18749999674876" x2="1.12499999987251" y2="4.68749999623876"/>
    <line x1="1.12499999987251" y1="4.68749999623876" x2="1.0" y2="4.68749999623876"/>
    <line x1="1.0" y1="4.68749999623876" x2="1.0" y2="5.18749999572876"/>
    <line x1="1.0" y1="5.18749999572876" x2="1.12499999987251" y2="5.18749999572876"/>
    <line x1="1.12499999987251" y1="5.18749999572876" x2="1.12499999987251" y2="5.68749999521876"/>
    <line x1="1.12499999987251" y1="5.68749999521876" x2="1.00000000000001" y2="5.68749999521876"/>
    <line x1="1.00000000000001" y1="5.68749999521876" x2="1.0" y2="6.18749999470875"/>
    <line x1="1.0" y1="6.18749999470875" x2="1.12499999987251" y2="6.18749999470876"/>
    <line x1="1.12499999987251" y1="6.18749999470876" x2="1.1249999998725" y2="6.74999999413502"/>
    <line x1="1.1249999998725" y1="6.74999999413502" x2="1.68749999929876" y2="6.74999999413502"/>
    <line x1="1.68749999929876" y1="6.74999999413502" x2="1.68749999929876" y2="6.87499999400751"/>
    <line x1="1.68749999929876" y1="6.87499999400751" x2="2.18749999878875" y2="6.8749999940075"/>
    <line x1="2.18749999878875" y1="6.8749999940075" x2="2.18749999878875" y2="6.74999999413502"/>
    <line x1="2.18749999878875" y1="6.74999999413502" x2="2.68749999827875" y2="6.74999999413502"/>
    <line x1="2.68749999827875" y1="6.74999999413502" x2="2.68749999827875" y2="6.87499999400751"/>
    <line x1="2.68749999827875" y1="6.87499999400751" x2="3.18749999776875" y2="6.87499999400751"/>
    <line x1="3.18749999776875" y1="6.87499999400751" x2="3.18749999776875" y2="6.74999999413502"/>
    <line x1="3.18749999776875" y1="6.74999999413502" x2="3.68749999725875" y2="6.74999999413502"/>
    <line x1="4.87499999604751" y1="1.68749999929876" x2="4.99999999592" y2="1.68749999929876"/>
    <line x1="4.99999999592" y1="1.68749999929876" x2="4.99999999592" y2="2.18749999878876"/>
    <line x1="4.99999999592" y1="2.18749999878876" x2="4.87499999604751" y2="2.18749999878876"/>
    <line x1="4.87499999604751" y1="2.18749999878876" x2="4.87499999604751" y2="1.68749999929876"/>
    <line x1="4.87499999604751" y1="2.68749999827876" x2="4.99999999592" y2="2.68749999827876"/>
    <line x1="4.99999999592" y1="2.68749999827876" x2="4.99999999592" y2="3.18749999776876"/>
    <line x1="4.99999999592" y1="3.18749999776876" x2="4.87499999604751" y2="3.18749999776876"/>
    <line x1="4.87499999604751" y1="3.18749999776876" x2="4.87499999604751" y2="2.68749999827876"/>
    <line x1="2.8749999980875" y1="1.68749999929876" x2="2.99999999796" y2="1.68749999929876"/>
    <line x1="2.99999999796" y1="1.68749999929876" x2="2.99999999796" y2="2.18749999878876"/>
    <line x1="2.99999999796" y1="2.18749999878876" x2="2.8749999980875" y2="2.18749999878876"/>
    <line x1="2.8749999980875" y1="2.18749999878876" x2="2.8749999980875" y2="1.68749999929876"/>
    <line x1="2.8749999980875" y1="2.68749999827876" x2="2.99999999796" y2="2.68749999827876"/>
    <line x1="2.99999999796" y1="2.68749999827876" x2="2.99999999796" y2="3.18749999776876"/>
    <line x1="2.99999999796" y1="3.18749999776876" x2="2.8749999980875" y2="3.18749999776876"/>
    <line x1="2.8749999980875" y1="3.18749999776876" x2="2.8749999980875" y2="2.68749999827876"/>
    <line x1="8.18749999266874" y1="4.89281495665926" x2="7.68749999317873" y2="4.89281495665926"/>
    <line x1="7.68749999317873" y1="4.89281495665926" x2="7.68749999317873" y2="4.76781495678676"/>
    <line x1="7.68749999317873" y1="4.76781495678676" x2="8.18749999266874" y2="4.76781495678676"/>
    <line x1="8.18749999266874" y1="4.76781495678676" x2="8.18749999266874" y2="4.89281495665926"/>
    <line x1="7.18749999368875" y1="4.76781495678676" x2="7.18749999368875" y2="4.89281495665926"/>
    <line x1="7.18749999368875" y1="4.89281495665926" x2="6.68749999419874" y2="4.89281495665926"/>
    <line x1="6.68749999419874" y1="4.89281495665926" x2="6.68749999419874" y2="4.76781495678676"/>
    <line x1="6.68749999419874" y1="4.76781495678676" x2="7.18749999368875" y2="4.76781495678676"/>
    <line x1="3.87499999706753" y1="1.68749999929875" x2="3.99999999694003" y2="1.68749999929875"/>
    <line x1="3.99999999694003" y1="1.68749999929875" x2="3.99999999694003" y2="2.18749999878875"/>
    <line x1="3.99999999694003" y1="2.18749999878875" x2="3.87499999706752" y2="2.18749999878875"/>
    <line x1="3.87499999706752" y1="2.18749999878875" x2="3.87499999706753" y2="1.68749999929875"/>
    <line x1="3.87499999706753" y1="3.18749999776875" x2="3.87499999706752" y2="2.68749999827875"/>
    <line x1="3.87499999706752" y1="2.68749999827875" x2="3.99999999694002" y2="2.68749999827875"/>
    <line x1="3.99999999694002" y1="2.68749999827875" x2="3.99999999694003" y2="3.18749999776875"/>
    <line x1="3.99999999694003" y1="3.18749999776875" x2="3.87499999706753" y2="3.18749999776875"/>
    <line x1="6.18749999470874" y1="4.76781495678676" x2="6.18749999470874" y2="4.89281495665926"/>
    <line x1="6.18749999470874" y1="4.89281495665926" x2="5.68749999521874" y2="4.89281495665926"/>
    <line x1="5.68749999521874" y1="4.89281495665926" x2="5.68749999521874" y2="4.76781495678676"/>
    <line x1="5.68749999521874" y1="4.76781495678676" x2="6.18749999470874" y2="4.76781495678676"/>
    <line x1="4.87499999604751" y1="4.89281495665926" x2="4.87499999604751" y2="4.76781495678676"/>
    <line x1="4.87499999604751" y1="4.76781495678676" x2="5.18749999572874" y2="4.76781495678676"/>
    <line x1="5.18749999572874" y1="4.76781495678676" x2="5.18749999572874" y2="4.89281495665926"/>
    <line x1="5.18749999572874" y1="4.89281495665926" x2="4.87499999604751" y2="4.89281495665926"/>
    <line x1="4.87499999604751" y1="3.68749999725876" x2="4.99999999592" y2="3.68749999725876"/>
    <line x1="4.99999999592" y1="3.68749999725876" x2="4.99999999592" y2="4.18749999674876"/>
    <line x1="4.99999999592" y1="4.18749999674876" x2="4.87499999604751" y2="4.18749999674876"/>
    <line x1="4.87499999604751" y1="4.18749999674876" x2="4.87499999604751" y2="3.68749999725876"/>
  </g>
</svg>
