<?xml version="1.0" standalone="no"?>
<!DOCTYPE svg PUBLIC "-//W3C//DTD SVG 1.1//EN" "http://www.w3.org/Graphics/SVG/1.1/DTD/svg11.dtd">
<svg width="2.8749999991075in" height="4.68749999725874in"
 viewBox="0 0 2.8749999991075 4.68749999725874"
 xmlns="http://www.w3.org/2000/svg" version="1.1"
 xmlns:xlink="http://www.w3.org/1999/xlink">
<desc>Output from Flights of Ideas SVG Sketchup Plugin</desc>

  <g id="face0" fill="none" stroke="rgb(0,0,0)" stroke-width=".001" stroke-miterlimit="4" stroke-dasharray="none" stroke-linejoin="round" stroke-linecap="round">
    <line x1="1.449999999541" y1="2.24999999872499" x2="1.44978198286785" y2="2.2683154540651"/>
    <line x1="1.44978198286785" y1="2.2683154540651" x2="1.44912805639533" y2="2.28662053029422"/>
    <line x1="1.44912805639533" y1="2.28662053029422" x2="1.4480385906944" y2="2.30490485418305"/>
    <line x1="1.4480385906944" y1="2.30490485418305" x2="1.44651420314996" y2="2.32315806426236"/>
    <line x1="1.44651420314996" y1="2.32315806426236" x2="1.44455575761097" y2="2.34136981669468"/>
    <line x1="1.44455575761097" y1="2.34136981669468" x2="1.442164363901" y2="2.359529791136"/>
    <line x1="1.442164363901" y1="2.359529791136" x2="1.43934137718924" y2="2.37762769658416"/>
    <line x1="1.43934137718924" y1="2.37762769658416" x2="1.43608839722255" y2="2.39565327721063"/>
    <line x1="1.43608839722255" y1="2.39565327721063" x2="1.43240726741893" y2="2.41359631817236"/>
    <line x1="1.43240726741893" y1="2.41359631817236" x2="1.42830007382289" y2="2.43144665140034"/>
    <line x1="1.42830007382289" y1="2.43144665140034" x2="1.42376914392328" y2="2.44919416136174"/>
    <line x1="1.42376914392328" y1="2.44919416136174" x2="1.41881704533436" y2="2.46682879079223"/>
    <line x1="1.41881704533436" y1="2.46682879079223" x2="1.41344658434076" y2="2.4843405463953"/>
    <line x1="1.41344658434076" y1="2.4843405463953" x2="1.40766080430722" y2="2.50171950450529"/>
    <line x1="1.40766080430722" y1="2.50171950450529" x2="1.4014629839539" y2="2.51895581671102"/>
    <line x1="1.4014629839539" y1="2.51895581671102" x2="1.39485663549847" y2="2.53603971543674"/>
    <line x1="1.39485663549847" y1="2.53603971543674" x2="1.38784550266568" y2="2.55296151947727"/>
    <line x1="1.38784550266568" y1="2.55296151947727" x2="1.38043355856593" y2="2.56971163948422"/>
    <line x1="1.38043355856593" y1="2.56971163948422" x2="1.3726250034437" y2="2.58628058340013"/>
    <line x1="1.3726250034437" y1="2.58628058340013" x2="1.36442426229739" y2="2.60265896183746"/>
    <line x1="1.36442426229739" y1="2.60265896183746" x2="1.35583598237169" y2="2.61883749339947"/>
    <line x1="1.35583598237169" y1="2.61883749339947" x2="1.34686503052404" y2="2.63480700993982"/>
    <line x1="1.34686503052404" y1="2.63480700993982" x2="1.33751649046673" y2="2.65055846175806"/>
    <line x1="1.33751649046673" y1="2.65055846175806" x2="1.32779565988595" y2="2.66608292272793"/>
    <line x1="1.32779565988595" y1="2.66608292272793" x2="1.31770804743967" y2="2.68137159535569"/>
    <line x1="1.31770804743967" y1="2.68137159535569" x2="1.30725936963606" y2="2.69641581576558"/>
    <line x1="1.30725936963606" y1="2.69641581576558" x2="1.29645554759384" y2="2.71120705860943"/>
    <line x1="1.29645554759384" y1="2.71120705860943" x2="1.28530270368709" y2="2.72573694189791"/>
    <line x1="1.28530270368709" y1="2.72573694189791" x2="1.27380715807562" y2="2.73999723175049"/>
    <line x1="1.27380715807562" y1="2.73999723175049" x2="1.26197542512345" y2="2.75397984706142"/>
    <line x1="1.26197542512345" y1="2.75397984706142" x2="1.24981420970726" y2="2.76767686407925"/>
    <line x1="1.24981420970726" y1="2.76767686407925" x2="1.23733040341686" y2="2.78108052089703"/>
    <line x1="1.23733040341686" y1="2.78108052089703" x2="1.22453108064968" y2="2.79418322185091"/>
    <line x1="1.22453108064968" y1="2.79418322185091" x2="1.21142349460198" y2="2.80697754182454"/>
    <line x1="1.21142349460198" y1="2.80697754182454" x2="1.19801507315845" y2="2.81945623045667"/>
    <line x1="1.19801507315845" y1="2.81945623045667" x2="1.18431341468297" y2="2.83161221624996"/>
    <line x1="1.18431341468297" y1="2.83161221624996" x2="1.17032628371272" y2="2.84343861057817"/>
    <line x1="1.17032628371272" y1="2.84343861057817" x2="1.15606160655815" y2="2.85492871158995"/>
    <line x1="1.15606160655815" y1="2.85492871158995" x2="1.14152746681119" y2="2.86607600800663"/>
    <line x1="1.14152746681119" y1="2.86607600800663" x2="1.12673210076447" y2="2.87687418281208"/>
    <line x1="1.12673210076447" y1="2.87687418281208" x2="1.11168389274389" y2="2.88731711683248"/>
    <line x1="1.11168389274389" y1="2.88731711683248" x2="1.09639137035731" y2="2.89739889220397"/>
    <line x1="1.09639137035731" y1="2.89739889220397" x2="1.08086319966213" y2="2.90711379572622"/>
    <line x1="1.08086319966213" y1="2.90711379572622" x2="1.06510818025433" y2="2.91645632210001"/>
    <line x1="1.06510818025433" y1="2.91645632210001" x2="1.04913524028185" y2="2.92542117704702"/>
    <line x1="1.04913524028185" y1="2.92542117704702" x2="1.03295343138517" y2="2.93400328031001"/>
    <line x1="1.03295343138517" y1="2.93400328031001" x2="1.01657192356785" y2="2.94219776853176"/>
    <line x1="1.01657192356785" y1="2.94219776853176" x2="1.0" y2="2.949999998011"/>
    <line x1="1.0" y1="2.949999998011" x2="1.0" y2="3.56249999738622"/>
    <line x1="1.0" y1="3.56249999738622" x2="1.24999999974501" y2="3.56249999738622"/>
    <line x1="1.24999999974501" y1="3.56249999738622" x2="1.24999999974501" y2="3.68749999725874"/>
    <line x1="1.24999999974501" y1="3.68749999725874" x2="1.74999999923501" y2="3.68749999725874"/>
    <line x1="1.74999999923501" y1="3.68749999725874" x2="1.74999999923501" y2="3.56249999738623"/>
    <line x1="1.74999999923501" y1="3.56249999738623" x2="1.8749999991075" y2="3.56249999738623"/>
    <line x1="1.8749999991075" y1="3.56249999738623" x2="1.8749999991075" y2="1.24999999974499"/>
    <line x1="1.8749999991075" y1="1.24999999974499" x2="1.49999999949" y2="1.24999999974499"/>
    <line x1="1.49999999949" y1="1.24999999974499" x2="1.49999999949" y2="1.0"/>
    <line x1="1.49999999949" y1="1.0" x2="1.24999999974501" y2="1.0"/>
    <line x1="1.24999999974501" y1="1.0" x2="1.24999999974501" y2="1.24999999974499"/>
    <line x1="1.24999999974501" y1="1.24999999974499" x2="1.0" y2="1.24999999974499"/>
    <line x1="1.0" y1="1.24999999974499" x2="1.0" y2="1.79999999918399"/>
    <line x1="1.0" y1="1.79999999918399" x2="1.02943140812354" y2="1.80096348372564"/>
    <line x1="1.02943140812354" y1="1.80096348372564" x2="1.05873678643912" y2="1.80384981156185"/>
    <line x1="1.05873678643912" y1="1.80384981156185" x2="1.08779064481772" y2="1.80864662299372"/>
    <line x1="1.08779064481772" y1="1.80864662299372" x2="1.11646857017734" y2="1.81533337733827"/>
    <line x1="1.11646857017734" y1="1.81533337733827" x2="1.14464775923888" y2="1.82388144088684"/>
    <line x1="1.14464775923888" y1="1.82388144088684" x2="1.17220754438865" y2="1.83425420951897"/>
    <line x1="1.17220754438865" y1="1.83425420951897" x2="1.19902991039555" y2="1.84640726544695"/>
    <line x1="1.19902991039555" y1="1.84640726544695" x2="1.2249999997705" y2="1.8602885674195"/>
    <line x1="1.2249999997705" y1="1.8602885674195" x2="1.25000660460382" y2="1.87583867357049"/>
    <line x1="1.25000660460382" y1="1.87583867357049" x2="1.27394264277451" y2="1.89299099595808"/>
    <line x1="1.27394264277451" y1="1.89299099595808" x2="1.2967056164924" y2="1.91167208570455"/>
    <line x1="1.2967056164924" y1="1.91167208570455" x2="1.31819805120939" y2="1.93180194751561"/>
    <line x1="1.31819805120939" y1="1.93180194751561" x2="1.33832791302046" y2="1.9532943822326"/>
    <line x1="1.33832791302046" y1="1.9532943822326" x2="1.35700900276691" y2="1.97605735595049"/>
    <line x1="1.35700900276691" y1="1.97605735595049" x2="1.3741613251545" y2="1.99999339412117"/>
    <line x1="1.3741613251545" y1="1.99999339412117" x2="1.38971143130551" y2="2.02499999895449"/>
    <line x1="1.38971143130551" y1="2.02499999895449" x2="1.40359273327805" y2="2.05097008832945"/>
    <line x1="1.40359273327805" y1="2.05097008832945" x2="1.41574578920603" y2="2.07779245433635"/>
    <line x1="1.41574578920603" y1="2.07779245433635" x2="1.42611855783816" y2="2.10535223948611"/>
    <line x1="1.42611855783816" y1="2.10535223948611" x2="1.43466662138673" y2="2.13353142854766"/>
    <line x1="1.43466662138673" y1="2.13353142854766" x2="1.44135337573128" y2="2.16220935390728"/>
    <line x1="1.44135337573128" y1="2.16220935390728" x2="1.44615018716315" y2="2.19126321228588"/>
    <line x1="1.44615018716315" y1="2.19126321228588" x2="1.44903651499936" y2="2.22056859060145"/>
    <line x1="1.44903651499936" y1="2.22056859060145" x2="1.449999999541" y2="2.24999999872499"/>
  </g>
</svg>
