<?xml version="1.0" standalone="no"?>
<!DOCTYPE svg PUBLIC "-//W3C//DTD SVG 1.1//EN" "http://www.w3.org/Graphics/SVG/1.1/DTD/svg11.dtd">
<svg width="3.74999999821501in" height="4.68749999725875in"
 viewBox="0 0 3.74999999821501 4.68749999725875"
 xmlns="http://www.w3.org/2000/svg" version="1.1"
 xmlns:xlink="http://www.w3.org/1999/xlink">
<desc>Output from Flights of Ideas SVG Sketchup Plugin</desc>

  <g id="face0" fill="none" stroke="rgb(0,0,0)" stroke-width=".001" stroke-miterlimit="4" stroke-dasharray="none" stroke-linejoin="round" stroke-linecap="round">
    <line x1="2.72056859009146" y1="1.80096348372565" x2="2.749999998215" y2="1.799999999184"/>
    <line x1="2.749999998215" y1="1.799999999184" x2="2.74999999821501" y2="1.249999999745"/>
    <line x1="2.74999999821501" y1="1.249999999745" x2="2.49999999847001" y2="1.249999999745"/>
    <line x1="2.49999999847001" y1="1.249999999745" x2="2.49999999847" y2="1.0"/>
    <line x1="2.49999999847" y1="1.0" x2="2.24999999872501" y2="1.0"/>
    <line x1="2.24999999872501" y1="1.0" x2="2.24999999872501" y2="1.249999999745"/>
    <line x1="2.24999999872501" y1="1.249999999745" x2="1.12499999987251" y2="1.249999999745"/>
    <line x1="1.12499999987251" y1="1.249999999745" x2="1.12499999987251" y2="1.49999999949"/>
    <line x1="1.12499999987251" y1="1.49999999949" x2="1.00000000000001" y2="1.49999999949"/>
    <line x1="1.00000000000001" y1="1.49999999949" x2="1.00000000000001" y2="1.99999999898"/>
    <line x1="1.00000000000001" y1="1.99999999898" x2="1.12499999987251" y2="1.99999999898"/>
    <line x1="1.12499999987251" y1="1.99999999898" x2="1.12499999987251" y2="2.49999999847"/>
    <line x1="1.12499999987251" y1="2.49999999847" x2="1.0" y2="2.49999999847"/>
    <line x1="1.0" y1="2.49999999847" x2="1.0" y2="2.99999999796"/>
    <line x1="1.0" y1="2.99999999796" x2="1.12499999987251" y2="2.99999999796"/>
    <line x1="1.12499999987251" y1="2.99999999796" x2="1.12499999987251" y2="3.56249999738624"/>
    <line x1="1.12499999987251" y1="3.56249999738624" x2="1.74999999923501" y2="3.56249999738624"/>
    <line x1="1.74999999923501" y1="3.56249999738624" x2="1.74999999923501" y2="3.68749999725875"/>
    <line x1="1.74999999923501" y1="3.68749999725875" x2="2.24999999872501" y2="3.68749999725875"/>
    <line x1="2.24999999872501" y1="3.68749999725875" x2="2.24999999872501" y2="3.56249999738623"/>
    <line x1="2.24999999872501" y1="3.56249999738623" x2="2.749999998215" y2="3.56249999738623"/>
    <line x1="2.749999998215" y1="3.56249999738623" x2="2.749999998215" y2="2.699999998266"/>
    <line x1="2.749999998215" y1="2.699999998266" x2="2.72056859009146" y2="2.69903651372436"/>
    <line x1="2.72056859009146" y1="2.69903651372436" x2="2.69126321177589" y2="2.69615018588814"/>
    <line x1="2.69126321177589" y1="2.69615018588814" x2="2.66220935339729" y2="2.69135337445627"/>
    <line x1="2.66220935339729" y1="2.69135337445627" x2="2.63353142803766" y2="2.68466662011172"/>
    <line x1="2.63353142803766" y1="2.68466662011172" x2="2.60535223897612" y2="2.67611855656316"/>
    <line x1="2.60535223897612" y1="2.67611855656316" x2="2.57779245382637" y2="2.66574578793102"/>
    <line x1="2.57779245382637" y1="2.66574578793102" x2="2.55097008781946" y2="2.65359273200305"/>
    <line x1="2.55097008781946" y1="2.65359273200305" x2="2.52499999844451" y2="2.63971143003049"/>
    <line x1="2.52499999844451" y1="2.63971143003049" x2="2.49999339361119" y2="2.62416132387951"/>
    <line x1="2.49999339361119" y1="2.62416132387951" x2="2.4760573554405" y2="2.60700900149191"/>
    <line x1="2.4760573554405" y1="2.60700900149191" x2="2.45329438172261" y2="2.58832791174544"/>
    <line x1="2.45329438172261" y1="2.58832791174544" x2="2.43180194700562" y2="2.56819804993438"/>
    <line x1="2.43180194700562" y1="2.56819804993438" x2="2.41167208519456" y2="2.54670561521739"/>
    <line x1="2.41167208519456" y1="2.54670561521739" x2="2.3929909954481" y2="2.52394264149951"/>
    <line x1="2.3929909954481" y1="2.52394264149951" x2="2.37583867306051" y2="2.50000660332882"/>
    <line x1="2.37583867306051" y1="2.50000660332882" x2="2.36028856690951" y2="2.4749999984955"/>
    <line x1="2.36028856690951" y1="2.4749999984955" x2="2.34640726493696" y2="2.44902990912055"/>
    <line x1="2.34640726493696" y1="2.44902990912055" x2="2.33425420900898" y2="2.42220754311364"/>
    <line x1="2.33425420900898" y1="2.42220754311364" x2="2.32388144037684" y2="2.39464775796388"/>
    <line x1="2.32388144037684" y1="2.39464775796388" x2="2.31792135773274" y2="2.3749999985975"/>
    <line x1="2.31792135773274" y1="2.3749999985975" x2="2.049999998929" y2="2.3749999985975"/>
    <line x1="2.049999998929" y1="2.3749999985975" x2="2.049999998929" y2="2.1249999988525"/>
    <line x1="2.049999998929" y1="2.1249999988525" x2="2.31792135773274" y2="2.1249999988525"/>
    <line x1="2.31792135773274" y1="2.1249999988525" x2="2.32388144037684" y2="2.10535223948612"/>
    <line x1="2.32388144037684" y1="2.10535223948612" x2="2.33425420900898" y2="2.07779245433636"/>
    <line x1="2.33425420900898" y1="2.07779245433636" x2="2.34640726493696" y2="2.05097008832946"/>
    <line x1="2.34640726493696" y1="2.05097008832946" x2="2.36028856690951" y2="2.0249999989545"/>
    <line x1="2.36028856690951" y1="2.0249999989545" x2="2.37583867306051" y2="1.99999339412118"/>
    <line x1="2.37583867306051" y1="1.99999339412118" x2="2.3929909954481" y2="1.97605735595049"/>
    <line x1="2.3929909954481" y1="1.97605735595049" x2="2.41167208519456" y2="1.95329438223261"/>
    <line x1="2.41167208519456" y1="1.95329438223261" x2="2.43180194700562" y2="1.93180194751561"/>
    <line x1="2.43180194700562" y1="1.93180194751561" x2="2.45329438172261" y2="1.91167208570455"/>
    <line x1="2.45329438172261" y1="1.91167208570455" x2="2.4760573554405" y2="1.89299099595809"/>
    <line x1="2.4760573554405" y1="1.89299099595809" x2="2.49999339361119" y2="1.8758386735705"/>
    <line x1="2.49999339361119" y1="1.8758386735705" x2="2.52499999844451" y2="1.86028856741951"/>
    <line x1="2.52499999844451" y1="1.86028856741951" x2="2.55097008781946" y2="1.84640726544695"/>
    <line x1="2.55097008781946" y1="1.84640726544695" x2="2.57779245382637" y2="1.83425420951898"/>
    <line x1="2.57779245382637" y1="1.83425420951898" x2="2.60535223897612" y2="1.82388144088685"/>
    <line x1="2.60535223897612" y1="1.82388144088685" x2="2.63353142803766" y2="1.81533337733828"/>
    <line x1="2.63353142803766" y1="1.81533337733828" x2="2.66220935339729" y2="1.80864662299373"/>
    <line x1="2.66220935339729" y1="1.80864662299373" x2="2.69126321177589" y2="1.80384981156186"/>
    <line x1="2.69126321177589" y1="1.80384981156186" x2="2.72056859009146" y2="1.80096348372565"/>
  </g>
</svg>
