<?xml version="1.0" standalone="no"?>
<!DOCTYPE svg PUBLIC "-//W3C//DTD SVG 1.1//EN" "http://www.w3.org/Graphics/SVG/1.1/DTD/svg11.dtd">
<svg width="3.749999998215in" height="5.89281495665926in"
 viewBox="0 0 3.749999998215 5.89281495665926"
 xmlns="http://www.w3.org/2000/svg" version="1.1"
 xmlns:xlink="http://www.w3.org/1999/xlink">
<desc>Output from Flights of Ideas SVG Sketchup Plugin</desc>

  <g id="face0" fill="none" stroke="rgb(0,0,0)" stroke-width=".001" stroke-miterlimit="4" stroke-dasharray="none" stroke-linejoin="round" stroke-linecap="round">
    <line x1="1.749999999235" y1="4.89281495665926" x2="2.249999998725" y2="4.89281495665926"/>
    <line x1="2.249999998725" y1="4.89281495665926" x2="2.249999998725" y2="4.76781495678676"/>
    <line x1="2.249999998725" y1="4.76781495678676" x2="2.749999998215" y2="4.76781495678676"/>
    <line x1="2.749999998215" y1="4.76781495678676" x2="2.749999998215" y2="3.90531495766651"/>
    <line x1="2.749999998215" y1="3.90531495766651" x2="2.72056859009146" y2="3.90435147312486"/>
    <line x1="2.72056859009146" y1="3.90435147312486" x2="2.69126321177589" y2="3.90146514528865"/>
    <line x1="2.69126321177589" y1="3.90146514528865" x2="2.6622093533973" y2="3.89666833385678"/>
    <line x1="2.6622093533973" y1="3.89666833385678" x2="2.63353142803767" y2="3.88998157951223"/>
    <line x1="2.63353142803767" y1="3.88998157951223" x2="2.60535223897612" y2="3.88143351596366"/>
    <line x1="2.60535223897612" y1="3.88143351596366" x2="2.57779245382638" y2="3.87106074733152"/>
    <line x1="2.57779245382638" y1="3.87106074733152" x2="2.55097008781946" y2="3.85890769140356"/>
    <line x1="2.55097008781946" y1="3.85890769140356" x2="2.5249999984445" y2="3.845026389431"/>
    <line x1="2.5249999984445" y1="3.845026389431" x2="2.49999339361118" y2="3.82947628328001"/>
    <line x1="2.49999339361118" y1="3.82947628328001" x2="2.4760573554405" y2="3.81232396089242"/>
    <line x1="2.4760573554405" y1="3.81232396089242" x2="2.45329438172261" y2="3.79364287114595"/>
    <line x1="2.45329438172261" y1="3.79364287114595" x2="2.43180194700562" y2="3.77351300933489"/>
    <line x1="2.43180194700562" y1="3.77351300933489" x2="2.41167208519455" y2="3.7520205746179"/>
    <line x1="2.41167208519455" y1="3.7520205746179" x2="2.39299099544809" y2="3.72925760090001"/>
    <line x1="2.39299099544809" y1="3.72925760090001" x2="2.37583867306049" y2="3.70532156272932"/>
    <line x1="2.37583867306049" y1="3.70532156272932" x2="2.36028856690952" y2="3.68031495789601"/>
    <line x1="2.36028856690952" y1="3.68031495789601" x2="2.34640726493695" y2="3.65434486852105"/>
    <line x1="2.34640726493695" y1="3.65434486852105" x2="2.33425420900898" y2="3.62752250251415"/>
    <line x1="2.33425420900898" y1="3.62752250251415" x2="2.32388144037684" y2="3.59996271736439"/>
    <line x1="2.32388144037684" y1="3.59996271736439" x2="2.31533337682828" y2="3.57178352830284"/>
    <line x1="2.31533337682828" y1="3.57178352830284" x2="2.30864662248372" y2="3.54310560294322"/>
    <line x1="2.30864662248372" y1="3.54310560294322" x2="2.30384981105186" y2="3.51405174456462"/>
    <line x1="2.30384981105186" y1="3.51405174456462" x2="2.30096348321565" y2="3.48474636624905"/>
    <line x1="2.30096348321565" y1="3.48474636624905" x2="2.299999998674" y2="3.45531495812551"/>
    <line x1="2.299999998674" y1="3.45531495812551" x2="2.30096348321565" y2="3.42588355000196"/>
    <line x1="2.30096348321565" y1="3.42588355000196" x2="2.30384981105186" y2="3.39657817168639"/>
    <line x1="2.30384981105186" y1="3.39657817168639" x2="2.30864662248372" y2="3.3675243133078"/>
    <line x1="2.30864662248372" y1="3.3675243133078" x2="2.31533337682828" y2="3.33884638794817"/>
    <line x1="2.31533337682828" y1="3.33884638794817" x2="2.32388144037684" y2="3.31066719888662"/>
    <line x1="2.32388144037684" y1="3.31066719888662" x2="2.33425420900898" y2="3.28310741373686"/>
    <line x1="2.33425420900898" y1="3.28310741373686" x2="2.34640726493695" y2="3.25628504772996"/>
    <line x1="2.34640726493695" y1="3.25628504772996" x2="2.36028856690952" y2="3.230314958355"/>
    <line x1="2.36028856690952" y1="3.230314958355" x2="2.37583867306049" y2="3.20530835352169"/>
    <line x1="2.37583867306049" y1="3.20530835352169" x2="2.39299099544809" y2="3.181372315351"/>
    <line x1="2.39299099544809" y1="3.181372315351" x2="2.41167208519455" y2="3.15860934163311"/>
    <line x1="2.41167208519455" y1="3.15860934163311" x2="2.43180194700562" y2="3.13711690691612"/>
    <line x1="2.43180194700562" y1="3.13711690691612" x2="2.45329438172261" y2="3.11698704510506"/>
    <line x1="2.45329438172261" y1="3.11698704510506" x2="2.4760573554405" y2="3.09830595535859"/>
    <line x1="2.4760573554405" y1="3.09830595535859" x2="2.49999339361118" y2="3.081153632971"/>
    <line x1="2.49999339361118" y1="3.081153632971" x2="2.5249999984445" y2="3.06560352682001"/>
    <line x1="2.5249999984445" y1="3.06560352682001" x2="2.55097008781946" y2="3.05172222484746"/>
    <line x1="2.55097008781946" y1="3.05172222484746" x2="2.57779245382638" y2="3.03956916891949"/>
    <line x1="2.57779245382638" y1="3.03956916891949" x2="2.60535223897612" y2="3.02919640028735"/>
    <line x1="2.60535223897612" y1="3.02919640028735" x2="2.63353142803767" y2="3.02064833673878"/>
    <line x1="2.63353142803767" y1="3.02064833673878" x2="2.6622093533973" y2="3.01396158239423"/>
    <line x1="2.6622093533973" y1="3.01396158239423" x2="2.69126321177589" y2="3.00916477096236"/>
    <line x1="2.69126321177589" y1="3.00916477096236" x2="2.72056859009146" y2="3.00627844312615"/>
    <line x1="2.72056859009146" y1="3.00627844312615" x2="2.749999998215" y2="3.0053149585845"/>
    <line x1="2.749999998215" y1="3.0053149585845" x2="2.749999998215" y2="1.12499999987249"/>
    <line x1="2.749999998215" y1="1.12499999987249" x2="2.24999999872501" y2="1.12499999987249"/>
    <line x1="2.24999999872501" y1="1.12499999987249" x2="2.24999999872501" y2="1.0"/>
    <line x1="2.24999999872501" y1="1.0" x2="1.74999999923501" y2="1.0"/>
    <line x1="1.74999999923501" y1="1.0" x2="1.74999999923501" y2="1.1249999998725"/>
    <line x1="1.74999999923501" y1="1.1249999998725" x2="1.1249999998725" y2="1.1249999998725"/>
    <line x1="1.1249999998725" y1="1.1249999998725" x2="1.1249999998725" y2="1.70531495991051"/>
    <line x1="1.1249999998725" y1="1.70531495991051" x2="1.0" y2="1.70531495991051"/>
    <line x1="1.0" y1="1.70531495991051" x2="1.0" y2="2.20531495940051"/>
    <line x1="1.0" y1="2.20531495940051" x2="1.1249999998725" y2="2.20531495940051"/>
    <line x1="1.1249999998725" y1="2.20531495940051" x2="1.1249999998725" y2="2.70531495889051"/>
    <line x1="1.1249999998725" y1="2.70531495889051" x2="1.0" y2="2.70531495889051"/>
    <line x1="1.0" y1="2.70531495889051" x2="1.0" y2="3.20531495838051"/>
    <line x1="1.0" y1="3.20531495838051" x2="1.1249999998725" y2="3.20531495838051"/>
    <line x1="1.1249999998725" y1="3.20531495838051" x2="1.1249999998725" y2="3.70531495787051"/>
    <line x1="1.1249999998725" y1="3.70531495787051" x2="1.0" y2="3.70531495787051"/>
    <line x1="1.0" y1="3.70531495787051" x2="1.0" y2="4.20531495736051"/>
    <line x1="1.0" y1="4.20531495736051" x2="1.1249999998725" y2="4.20531495736051"/>
    <line x1="1.1249999998725" y1="4.20531495736051" x2="1.1249999998725" y2="4.76781495678673"/>
    <line x1="1.1249999998725" y1="4.76781495678673" x2="1.749999999235" y2="4.76781495678673"/>
    <line x1="1.749999999235" y1="4.76781495678673" x2="1.749999999235" y2="4.89281495665926"/>
  </g>
</svg>
