<?xml version="1.0" standalone="no"?>
<!DOCTYPE svg PUBLIC "-//W3C//DTD SVG 1.1//EN" "http://www.w3.org/Graphics/SVG/1.1/DTD/svg11.dtd">
<svg width="3.749999998215in" height="4.43749999751375in"
 viewBox="0 0 3.749999998215 4.43749999751375"
 xmlns="http://www.w3.org/2000/svg" version="1.1"
 xmlns:xlink="http://www.w3.org/1999/xlink">
<desc>Output from Flights of Ideas SVG Sketchup Plugin</desc>

  <g id="face0" fill="none" stroke="rgb(0,0,0)" stroke-width=".001" stroke-miterlimit="4" stroke-dasharray="none" stroke-linejoin="round" stroke-linecap="round">
    <line x1="1.749999999235" y1="3.43749999751375" x2="2.249999998725" y2="3.43749999751375"/>
    <line x1="2.249999998725" y1="3.43749999751375" x2="2.249999998725" y2="3.31249999764125"/>
    <line x1="2.249999998725" y1="3.31249999764125" x2="2.749999998215" y2="3.31249999764125"/>
    <line x1="2.749999998215" y1="3.31249999764125" x2="2.749999998215" y2="2.449999998521"/>
    <line x1="2.749999998215" y1="2.449999998521" x2="2.72056859009146" y2="2.44903651397935"/>
    <line x1="2.72056859009146" y1="2.44903651397935" x2="2.69126321177589" y2="2.44615018614314"/>
    <line x1="2.69126321177589" y1="2.44615018614314" x2="2.6622093533973" y2="2.44135337471127"/>
    <line x1="2.6622093533973" y1="2.44135337471127" x2="2.63353142803767" y2="2.43466662036672"/>
    <line x1="2.63353142803767" y1="2.43466662036672" x2="2.60535223897612" y2="2.42611855681815"/>
    <line x1="2.60535223897612" y1="2.42611855681815" x2="2.57779245382638" y2="2.41574578818602"/>
    <line x1="2.57779245382638" y1="2.41574578818602" x2="2.55097008781946" y2="2.40359273225805"/>
    <line x1="2.55097008781946" y1="2.40359273225805" x2="2.5249999984445" y2="2.38971143028549"/>
    <line x1="2.5249999984445" y1="2.38971143028549" x2="2.49999339361118" y2="2.3741613241345"/>
    <line x1="2.49999339361118" y1="2.3741613241345" x2="2.4760573554405" y2="2.35700900174691"/>
    <line x1="2.4760573554405" y1="2.35700900174691" x2="2.45329438172261" y2="2.33832791200044"/>
    <line x1="2.45329438172261" y1="2.33832791200044" x2="2.43180194700562" y2="2.31819805018938"/>
    <line x1="2.43180194700562" y1="2.31819805018938" x2="2.41167208519455" y2="2.29670561547239"/>
    <line x1="2.41167208519455" y1="2.29670561547239" x2="2.39299099544809" y2="2.27394264175451"/>
    <line x1="2.39299099544809" y1="2.27394264175451" x2="2.37583867306049" y2="2.25000660358382"/>
    <line x1="2.37583867306049" y1="2.25000660358382" x2="2.36028856690952" y2="2.2249999987505"/>
    <line x1="2.36028856690952" y1="2.2249999987505" x2="2.34640726493695" y2="2.19902990937554"/>
    <line x1="2.34640726493695" y1="2.19902990937554" x2="2.33425420900898" y2="2.17220754336864"/>
    <line x1="2.33425420900898" y1="2.17220754336864" x2="2.32388144037684" y2="2.14464775821888"/>
    <line x1="2.32388144037684" y1="2.14464775821888" x2="2.31533337682828" y2="2.11646856915734"/>
    <line x1="2.31533337682828" y1="2.11646856915734" x2="2.30864662248372" y2="2.08779064379771"/>
    <line x1="2.30864662248372" y1="2.08779064379771" x2="2.30384981105186" y2="2.05873678541911"/>
    <line x1="2.30384981105186" y1="2.05873678541911" x2="2.30096348321565" y2="2.02943140710354"/>
    <line x1="2.30096348321565" y1="2.02943140710354" x2="2.299999998674" y2="1.99999999898"/>
    <line x1="2.299999998674" y1="1.99999999898" x2="2.30096348321565" y2="1.97056859085646"/>
    <line x1="2.30096348321565" y1="1.97056859085646" x2="2.30384981105186" y2="1.94126321254089"/>
    <line x1="2.30384981105186" y1="1.94126321254089" x2="2.30864662248372" y2="1.91220935416229"/>
    <line x1="2.30864662248372" y1="1.91220935416229" x2="2.31533337682828" y2="1.88353142880266"/>
    <line x1="2.31533337682828" y1="1.88353142880266" x2="2.32388144037684" y2="1.85535223974112"/>
    <line x1="2.32388144037684" y1="1.85535223974112" x2="2.33425420900898" y2="1.82779245459136"/>
    <line x1="2.33425420900898" y1="1.82779245459136" x2="2.34640726493695" y2="1.80097008858445"/>
    <line x1="2.34640726493695" y1="1.80097008858445" x2="2.36028856690952" y2="1.7749999992095"/>
    <line x1="2.36028856690952" y1="1.7749999992095" x2="2.37583867306049" y2="1.74999339437618"/>
    <line x1="2.37583867306049" y1="1.74999339437618" x2="2.39299099544809" y2="1.72605735620549"/>
    <line x1="2.39299099544809" y1="1.72605735620549" x2="2.41167208519455" y2="1.70329438248761"/>
    <line x1="2.41167208519455" y1="1.70329438248761" x2="2.43180194700562" y2="1.68180194777061"/>
    <line x1="2.43180194700562" y1="1.68180194777061" x2="2.45329438172261" y2="1.66167208595955"/>
    <line x1="2.45329438172261" y1="1.66167208595955" x2="2.4760573554405" y2="1.64299099621309"/>
    <line x1="2.4760573554405" y1="1.64299099621309" x2="2.49999339361118" y2="1.62583867382549"/>
    <line x1="2.49999339361118" y1="1.62583867382549" x2="2.5249999984445" y2="1.61028856767451"/>
    <line x1="2.5249999984445" y1="1.61028856767451" x2="2.55097008781946" y2="1.59640726570195"/>
    <line x1="2.55097008781946" y1="1.59640726570195" x2="2.57779245382638" y2="1.58425420977398"/>
    <line x1="2.57779245382638" y1="1.58425420977398" x2="2.60535223897612" y2="1.57388144114184"/>
    <line x1="2.60535223897612" y1="1.57388144114184" x2="2.63353142803767" y2="1.56533337759328"/>
    <line x1="2.63353142803767" y1="1.56533337759328" x2="2.6622093533973" y2="1.55864662324873"/>
    <line x1="2.6622093533973" y1="1.55864662324873" x2="2.69126321177589" y2="1.55384981181686"/>
    <line x1="2.69126321177589" y1="1.55384981181686" x2="2.72056859009146" y2="1.55096348398064"/>
    <line x1="2.72056859009146" y1="1.55096348398064" x2="2.749999998215" y2="1.549999999439"/>
    <line x1="2.749999998215" y1="1.549999999439" x2="2.749999998215" y2="1.0"/>
    <line x1="2.749999998215" y1="1.0" x2="1.1249999998725" y2="1.0"/>
    <line x1="1.1249999998725" y1="1.0" x2="1.1249999998725" y2="1.249999999745"/>
    <line x1="1.1249999998725" y1="1.249999999745" x2="1.0" y2="1.249999999745"/>
    <line x1="1.0" y1="1.249999999745" x2="1.0" y2="1.749999999235"/>
    <line x1="1.0" y1="1.749999999235" x2="1.1249999998725" y2="1.749999999235"/>
    <line x1="1.1249999998725" y1="1.749999999235" x2="1.1249999998725" y2="2.249999998725"/>
    <line x1="1.1249999998725" y1="2.249999998725" x2="1.0" y2="2.249999998725"/>
    <line x1="1.0" y1="2.249999998725" x2="1.0" y2="2.749999998215"/>
    <line x1="1.0" y1="2.749999998215" x2="1.1249999998725" y2="2.749999998215"/>
    <line x1="1.1249999998725" y1="2.749999998215" x2="1.1249999998725" y2="3.31249999764123"/>
    <line x1="1.1249999998725" y1="3.31249999764123" x2="1.749999999235" y2="3.31249999764123"/>
    <line x1="1.749999999235" y1="3.31249999764123" x2="1.749999999235" y2="3.43749999751375"/>
  </g>
</svg>
