<?xml version="1.0" standalone="no"?>
<!DOCTYPE svg PUBLIC "-//W3C//DTD SVG 1.1//EN" "http://www.w3.org/Graphics/SVG/1.1/DTD/svg11.dtd">
<svg width="3.49999999847in" height="2.49999999949in"
 viewBox="0 0 3.49999999847 2.49999999949"
 xmlns="http://www.w3.org/2000/svg" version="1.1"
 xmlns:xlink="http://www.w3.org/1999/xlink">
<desc>Output from Flights of Ideas SVG Sketchup Plugin</desc>

  <g id="face0" fill="none" stroke="rgb(0,0,0)" stroke-width=".001" stroke-miterlimit="4" stroke-dasharray="none" stroke-linejoin="round" stroke-linecap="round">
    <line x1="1.249999999745" y1="1.49999999949" x2="2.249999998725" y2="1.49999999949"/>
    <line x1="2.249999998725" y1="1.49999999949" x2="2.26635092196774" y2="1.49999999949"/>
    <line x1="2.26635092196774" y1="1.49999999949" x2="2.28263154674674" y2="1.49786121483555"/>
    <line x1="2.28263154674674" y1="1.49786121483555" x2="2.29877257917929" y2="1.49519631959568"/>
    <line x1="2.29877257917929" y1="1.49519631959568" x2="2.31470475993464" y2="1.49148145607096"/>
    <line x1="2.31470475993464" y1="1.49148145607096" x2="2.33035986496883" y2="1.4867325318773"/>
    <line x1="2.33035986496883" y1="1.4867325318773" x2="2.34567085671869" y2="1.48096988263723"/>
    <line x1="2.34567085671869" y1="1.48096988263723" x2="2.36057217116697" y2="1.47421818489948"/>
    <line x1="2.36057217116697" y1="1.47421818489948" x2="2.3749999985975" y2="1.46650635047027"/>
    <line x1="2.3749999985975" y1="1.46650635047027" x2="2.38889255683824" y2="1.45786740260861"/>
    <line x1="2.38889255683824" y1="1.45786740260861" x2="2.40219035582195" y2="1.44833833461551"/>
    <line x1="2.40219035582195" y1="1.44833833461551" x2="2.41483645233188" y2="1.43795995142302"/>
    <line x1="2.41483645233188" y1="1.43795995142302" x2="2.42677669384133" y2="1.42677669486132"/>
    <line x1="2.42677669384133" y1="1.42677669486132" x2="2.43795995040303" y2="1.41483645335189"/>
    <line x1="2.43795995040303" y1="1.41483645335189" x2="2.44833833359551" y2="1.40219035684194"/>
    <line x1="2.44833833359551" y1="1.40219035684194" x2="2.45786740158862" y2="1.38889255785823"/>
    <line x1="2.45786740158862" y1="1.38889255785823" x2="2.46650634945028" y2="1.3749999996175"/>
    <line x1="2.46650634945028" y1="1.3749999996175" x2="2.47421818387947" y2="1.36057217218697"/>
    <line x1="2.47421818387947" y1="1.36057217218697" x2="2.48096988161723" y2="1.34567085773869"/>
    <line x1="2.48096988161723" y1="1.34567085773869" x2="2.48673253085732" y2="1.33035986598882"/>
    <line x1="2.48673253085732" y1="1.33035986598882" x2="2.49148145505095" y2="1.31470476095463"/>
    <line x1="2.49148145505095" y1="1.31470476095463" x2="2.49519631857571" y2="1.29877258019928"/>
    <line x1="2.49519631857571" y1="1.29877258019928" x2="2.49786121381564" y2="1.28263154776673"/>
    <line x1="2.49786121381564" y1="1.28263154776673" x2="2.4994647292802" y2="1.26635078203586"/>
    <line x1="2.4994647292802" y1="1.26635078203586" x2="2.49999999847" y2="1.249999999745"/>
    <line x1="2.49999999847" y1="1.249999999745" x2="2.4994647292802" y2="1.23364921745414"/>
    <line x1="2.4994647292802" y1="1.23364921745414" x2="2.49786121381564" y2="1.21736845172327"/>
    <line x1="2.49786121381564" y1="1.21736845172327" x2="2.49519631857571" y2="1.20122741929072"/>
    <line x1="2.49519631857571" y1="1.20122741929072" x2="2.49148145505095" y2="1.18529523853537"/>
    <line x1="2.49148145505095" y1="1.18529523853537" x2="2.48673253085732" y2="1.16964013350118"/>
    <line x1="2.48673253085732" y1="1.16964013350118" x2="2.48096988161723" y2="1.15432914175131"/>
    <line x1="2.48096988161723" y1="1.15432914175131" x2="2.47421818387947" y2="1.13942782730303"/>
    <line x1="2.47421818387947" y1="1.13942782730303" x2="2.46650634945028" y2="1.1249999998725"/>
    <line x1="2.46650634945028" y1="1.1249999998725" x2="2.45786740158862" y2="1.11110744163177"/>
    <line x1="2.45786740158862" y1="1.11110744163177" x2="2.44833833359551" y2="1.09780964264805"/>
    <line x1="2.44833833359551" y1="1.09780964264805" x2="2.43795995040303" y2="1.08516354613812"/>
    <line x1="2.43795995040303" y1="1.08516354613812" x2="2.42677669384133" y2="1.07322330462867"/>
    <line x1="2.42677669384133" y1="1.07322330462867" x2="2.41483645233188" y2="1.06204004806697"/>
    <line x1="2.41483645233188" y1="1.06204004806697" x2="2.40219035582195" y2="1.0516616648745"/>
    <line x1="2.40219035582195" y1="1.0516616648745" x2="2.38889255683824" y2="1.04213259688139"/>
    <line x1="2.38889255683824" y1="1.04213259688139" x2="2.3749999985975" y2="1.03349364901973"/>
    <line x1="2.3749999985975" y1="1.03349364901973" x2="2.36057217116697" y2="1.02578181459053"/>
    <line x1="2.36057217116697" y1="1.02578181459053" x2="2.34567085671869" y2="1.01903011685277"/>
    <line x1="2.34567085671869" y1="1.01903011685277" x2="2.33035986496883" y2="1.01326746761269"/>
    <line x1="2.33035986496883" y1="1.01326746761269" x2="2.31470475993464" y2="1.00851854341904"/>
    <line x1="2.31470475993464" y1="1.00851854341904" x2="2.29877257917929" y2="1.00480367989429"/>
    <line x1="2.29877257917929" y1="1.00480367989429" x2="2.28263154674674" y2="1.00213878465437"/>
    <line x1="2.28263154674674" y1="1.00213878465437" x2="2.26635078101586" y2="1.0005352691898"/>
    <line x1="2.26635078101586" y1="1.0005352691898" x2="2.249999998725" y2="1.0"/>
    <line x1="2.249999998725" y1="1.0" x2="1.249999999745" y2="1.0"/>
    <line x1="1.249999999745" y1="1.0" x2="1.23364921745414" y2="1.0005352691898"/>
    <line x1="1.23364921745414" y1="1.0005352691898" x2="1.21736845172327" y2="1.00213878465437"/>
    <line x1="1.21736845172327" y1="1.00213878465437" x2="1.20122741929072" y2="1.00480367989429"/>
    <line x1="1.20122741929072" y1="1.00480367989429" x2="1.18529523853537" y2="1.00851854341904"/>
    <line x1="1.18529523853537" y1="1.00851854341904" x2="1.16964013350118" y2="1.01326746761269"/>
    <line x1="1.16964013350118" y1="1.01326746761269" x2="1.1543291417513" y2="1.01903011685277"/>
    <line x1="1.1543291417513" y1="1.01903011685277" x2="1.13942782730303" y2="1.02578181459053"/>
    <line x1="1.13942782730303" y1="1.02578181459053" x2="1.12499999987251" y2="1.03349364901973"/>
    <line x1="1.12499999987251" y1="1.03349364901973" x2="1.11110744163177" y2="1.04213259688139"/>
    <line x1="1.11110744163177" y1="1.04213259688139" x2="1.09780964264806" y2="1.0516616648745"/>
    <line x1="1.09780964264806" y1="1.0516616648745" x2="1.08516354613811" y2="1.06204004806698"/>
    <line x1="1.08516354613811" y1="1.06204004806698" x2="1.07322330462867" y2="1.07322330462867"/>
    <line x1="1.07322330462867" y1="1.07322330462867" x2="1.06204004806698" y2="1.08516354613812"/>
    <line x1="1.06204004806698" y1="1.08516354613812" x2="1.05166166487449" y2="1.09780964264805"/>
    <line x1="1.05166166487449" y1="1.09780964264805" x2="1.04213259688139" y2="1.11110744163177"/>
    <line x1="1.04213259688139" y1="1.11110744163177" x2="1.03349364901973" y2="1.1249999998725"/>
    <line x1="1.03349364901973" y1="1.1249999998725" x2="1.02578181459053" y2="1.13942782730303"/>
    <line x1="1.02578181459053" y1="1.13942782730303" x2="1.01903011685277" y2="1.15432914175131"/>
    <line x1="1.01903011685277" y1="1.15432914175131" x2="1.01326746761269" y2="1.16964013350118"/>
    <line x1="1.01326746761269" y1="1.16964013350118" x2="1.00851854341904" y2="1.18529523853537"/>
    <line x1="1.00851854341904" y1="1.18529523853537" x2="1.00480367989429" y2="1.20122741929072"/>
    <line x1="1.00480367989429" y1="1.20122741929072" x2="1.00213878465436" y2="1.21736845172327"/>
    <line x1="1.00213878465436" y1="1.21736845172327" x2="1.00053526918981" y2="1.23364921745414"/>
    <line x1="1.00053526918981" y1="1.23364921745414" x2="1.0" y2="1.249999999745"/>
    <line x1="1.0" y1="1.249999999745" x2="1.00053526918981" y2="1.26635078203586"/>
    <line x1="1.00053526918981" y1="1.26635078203586" x2="1.00213878465436" y2="1.28263154776673"/>
    <line x1="1.00213878465436" y1="1.28263154776673" x2="1.00480367989429" y2="1.29877258019928"/>
    <line x1="1.00480367989429" y1="1.29877258019928" x2="1.00851854341904" y2="1.31470476095463"/>
    <line x1="1.00851854341904" y1="1.31470476095463" x2="1.01326746761269" y2="1.33035986598882"/>
    <line x1="1.01326746761269" y1="1.33035986598882" x2="1.01903011685277" y2="1.34567085773869"/>
    <line x1="1.01903011685277" y1="1.34567085773869" x2="1.02578181459053" y2="1.36057217218697"/>
    <line x1="1.02578181459053" y1="1.36057217218697" x2="1.03349364901973" y2="1.3749999996175"/>
    <line x1="1.03349364901973" y1="1.3749999996175" x2="1.04213259688139" y2="1.38889255785823"/>
    <line x1="1.04213259688139" y1="1.38889255785823" x2="1.05166166487449" y2="1.40219035684195"/>
    <line x1="1.05166166487449" y1="1.40219035684195" x2="1.06204004806698" y2="1.41483645335188"/>
    <line x1="1.06204004806698" y1="1.41483645335188" x2="1.07322330462867" y2="1.42677669486132"/>
    <line x1="1.07322330462867" y1="1.42677669486132" x2="1.08516354613811" y2="1.43795995142303"/>
    <line x1="1.08516354613811" y1="1.43795995142303" x2="1.09780964264806" y2="1.4483383346155"/>
    <line x1="1.09780964264806" y1="1.4483383346155" x2="1.11110744163177" y2="1.45786740260861"/>
    <line x1="1.11110744163177" y1="1.45786740260861" x2="1.12499999987251" y2="1.46650635047027"/>
    <line x1="1.12499999987251" y1="1.46650635047027" x2="1.13942782730304" y2="1.47421818489947"/>
    <line x1="1.13942782730304" y1="1.47421818489947" x2="1.1543291417513" y2="1.48096988263723"/>
    <line x1="1.1543291417513" y1="1.48096988263723" x2="1.16964013350118" y2="1.48673253187731"/>
    <line x1="1.16964013350118" y1="1.48673253187731" x2="1.18529523853537" y2="1.49148145607096"/>
    <line x1="1.18529523853537" y1="1.49148145607096" x2="1.20122741929072" y2="1.49519631959571"/>
    <line x1="1.20122741929072" y1="1.49519631959571" x2="1.21736845172327" y2="1.49786121483563"/>
    <line x1="1.21736845172327" y1="1.49786121483563" x2="1.23364921745414" y2="1.4994647303002"/>
    <line x1="1.23364921745414" y1="1.4994647303002" x2="1.249999999745" y2="1.49999999949"/>
    <line x1="2.249999998725" y1="1.18749999980875" x2="2.249999998725" y2="1.31249999968124"/>
    <line x1="2.249999998725" y1="1.31249999968124" x2="1.99999999898" y2="1.31249999968124"/>
    <line x1="1.99999999898" y1="1.31249999968124" x2="1.99999999898" y2="1.18749999980875"/>
    <line x1="1.99999999898" y1="1.18749999980875" x2="2.249999998725" y2="1.18749999980875"/>
    <line x1="1.49999999949" y1="1.18749999980876" x2="1.49999999949" y2="1.31249999968126"/>
    <line x1="1.49999999949" y1="1.31249999968126" x2="1.249999999745" y2="1.31249999968126"/>
    <line x1="1.249999999745" y1="1.31249999968126" x2="1.249999999745" y2="1.18749999980876"/>
    <line x1="1.249999999745" y1="1.18749999980876" x2="1.49999999949" y2="1.18749999980876"/>
  </g>
</svg>
