<?xml version="1.0" standalone="no"?>
<!DOCTYPE svg PUBLIC "-//W3C//DTD SVG 1.1//EN" "http://www.w3.org/Graphics/SVG/1.1/DTD/svg11.dtd">
<svg width="4.87499999706751in" height="7.8749999940075in"
 viewBox="0 0 4.87499999706751 7.8749999940075"
 xmlns="http://www.w3.org/2000/svg" version="1.1"
 xmlns:xlink="http://www.w3.org/1999/xlink">
<desc>Output from Flights of Ideas SVG Sketchup Plugin</desc>

  <g id="face0" fill="none" stroke="rgb(0,0,0)" stroke-width=".001" stroke-miterlimit="4" stroke-dasharray="none" stroke-linejoin="round" stroke-linecap="round">
    <line x1="1.49999999949002" y1="1.0" x2="1.00000000000001" y2="1.0"/>
    <line x1="1.00000000000001" y1="1.0" x2="1.0" y2="1.68749999929873"/>
    <line x1="1.0" y1="1.68749999929873" x2="1.1249999998725" y2="1.68749999929873"/>
    <line x1="1.1249999998725" y1="1.68749999929873" x2="1.1249999998725" y2="2.18749999878876"/>
    <line x1="1.1249999998725" y1="2.18749999878876" x2="1.0" y2="2.18749999878876"/>
    <line x1="1.0" y1="2.18749999878876" x2="1.0" y2="2.68749999827874"/>
    <line x1="1.0" y1="2.68749999827874" x2="1.1249999998725" y2="2.68749999827874"/>
    <line x1="1.1249999998725" y1="2.68749999827874" x2="1.1249999998725" y2="3.18749999776874"/>
    <line x1="1.1249999998725" y1="3.18749999776874" x2="1.0" y2="3.18749999776874"/>
    <line x1="1.0" y1="3.18749999776874" x2="1.0" y2="3.68749999725875"/>
    <line x1="1.0" y1="3.68749999725875" x2="1.1249999998725" y2="3.68749999725875"/>
    <line x1="1.1249999998725" y1="3.68749999725875" x2="1.1249999998725" y2="4.18749999674876"/>
    <line x1="1.1249999998725" y1="4.18749999674876" x2="1.0" y2="4.18749999674876"/>
    <line x1="1.0" y1="4.18749999674876" x2="1.0" y2="4.68749999623873"/>
    <line x1="1.0" y1="4.68749999623873" x2="1.12499999987251" y2="4.68749999623873"/>
    <line x1="1.12499999987251" y1="4.68749999623873" x2="1.12499999987251" y2="5.18749999572873"/>
    <line x1="1.12499999987251" y1="5.18749999572873" x2="1.0" y2="5.18749999572873"/>
    <line x1="1.0" y1="5.18749999572873" x2="1.0" y2="5.68749999521873"/>
    <line x1="1.0" y1="5.68749999521873" x2="1.12499999987251" y2="5.68749999521873"/>
    <line x1="1.12499999987251" y1="5.68749999521873" x2="1.12499999987251" y2="6.18749999470877"/>
    <line x1="1.12499999987251" y1="6.18749999470877" x2="1.0" y2="6.18749999470877"/>
    <line x1="1.0" y1="6.18749999470877" x2="1.00000000000001" y2="6.87499999400749"/>
    <line x1="1.00000000000001" y1="6.87499999400749" x2="1.49999999949002" y2="6.87499999400749"/>
    <line x1="1.49999999949002" y1="6.87499999400749" x2="1.49999999949001" y2="6.74999999413499"/>
    <line x1="1.49999999949001" y1="6.74999999413499" x2="1.99999999898001" y2="6.74999999413498"/>
    <line x1="1.99999999898001" y1="6.74999999413498" x2="1.99999999898002" y2="6.8749999940075"/>
    <line x1="1.99999999898002" y1="6.8749999940075" x2="2.49999999847001" y2="6.8749999940075"/>
    <line x1="2.49999999847001" y1="6.8749999940075" x2="2.49999999847001" y2="6.74999999413501"/>
    <line x1="2.49999999847001" y1="6.74999999413501" x2="2.99999999796001" y2="6.74999999413501"/>
    <line x1="2.99999999796001" y1="6.74999999413501" x2="2.99999999796001" y2="6.87499999400749"/>
    <line x1="2.99999999796001" y1="6.87499999400749" x2="3.49999999745001" y2="6.87499999400749"/>
    <line x1="3.49999999745001" y1="6.87499999400749" x2="3.49999999745001" y2="6.74999999413498"/>
    <line x1="3.49999999745001" y1="6.74999999413498" x2="3.87499999706751" y2="6.74999999413498"/>
    <line x1="3.87499999706751" y1="6.74999999413498" x2="3.8749999970675" y2="6.0194999948801"/>
    <line x1="3.8749999970675" y1="6.0194999948801" x2="3.749999997195" y2="6.0194999948801"/>
    <line x1="3.749999997195" y1="6.0194999948801" x2="3.749999997195" y2="6.10937499478842"/>
    <line x1="3.749999997195" y1="6.10937499478842" x2="3.6249999973225" y2="6.10937499478842"/>
    <line x1="3.6249999973225" y1="6.10937499478842" x2="3.6249999973225" y2="5.76562499513905"/>
    <line x1="3.6249999973225" y1="5.76562499513905" x2="3.749999997195" y2="5.76562499513905"/>
    <line x1="3.749999997195" y1="5.76562499513905" x2="3.749999997195" y2="5.85549999504736"/>
    <line x1="3.749999997195" y1="5.85549999504736" x2="3.8749999970675" y2="5.85549999504736"/>
    <line x1="3.8749999970675" y1="5.85549999504736" x2="3.8749999970675" y2="2.0194999989601"/>
    <line x1="3.8749999970675" y1="2.0194999989601" x2="3.749999997195" y2="2.0194999989601"/>
    <line x1="3.749999997195" y1="2.0194999989601" x2="3.749999997195" y2="2.10937499886842"/>
    <line x1="3.749999997195" y1="2.10937499886842" x2="3.6249999973225" y2="2.10937499886842"/>
    <line x1="3.6249999973225" y1="2.10937499886842" x2="3.6249999973225" y2="1.76562499921905"/>
    <line x1="3.6249999973225" y1="1.76562499921905" x2="3.749999997195" y2="1.76562499921905"/>
    <line x1="3.749999997195" y1="1.76562499921905" x2="3.749999997195" y2="1.85549999912737"/>
    <line x1="3.749999997195" y1="1.85549999912737" x2="3.8749999970675" y2="1.85549999912737"/>
    <line x1="3.8749999970675" y1="1.85549999912737" x2="3.87499999706751" y2="1.12499999987251"/>
    <line x1="3.87499999706751" y1="1.12499999987251" x2="3.49999999745001" y2="1.1249999998725"/>
    <line x1="3.49999999745001" y1="1.1249999998725" x2="3.49999999745001" y2="1.0"/>
    <line x1="3.49999999745001" y1="1.0" x2="2.99999999796001" y2="1.0"/>
    <line x1="2.99999999796001" y1="1.0" x2="2.99999999796001" y2="1.1249999998725"/>
    <line x1="2.99999999796001" y1="1.1249999998725" x2="2.49999999847001" y2="1.12499999987251"/>
    <line x1="2.49999999847001" y1="1.12499999987251" x2="2.49999999847001" y2="1.0"/>
    <line x1="2.49999999847001" y1="1.0" x2="1.99999999898002" y2="1.0"/>
    <line x1="1.99999999898002" y1="1.0" x2="1.99999999898002" y2="1.12499999987251"/>
    <line x1="1.99999999898002" y1="1.12499999987251" x2="1.49999999949002" y2="1.12499999987251"/>
    <line x1="1.49999999949002" y1="1.12499999987251" x2="1.49999999949002" y2="1.0"/>
    <line x1="3.24999999770502" y1="4.76781495678674" x2="3.24999999770502" y2="4.89281495665924"/>
    <line x1="3.24999999770502" y1="4.89281495665924" x2="2.74999999821502" y2="4.89281495665924"/>
    <line x1="2.74999999821502" y1="4.89281495665924" x2="2.74999999821502" y2="4.76781495678674"/>
    <line x1="2.74999999821502" y1="4.76781495678674" x2="3.24999999770502" y2="4.76781495678674"/>
    <line x1="2.24999999872502" y1="4.76781495678674" x2="2.24999999872502" y2="4.89281495665924"/>
    <line x1="2.24999999872502" y1="4.89281495665924" x2="1.74999999923502" y2="4.89281495665924"/>
    <line x1="1.74999999923502" y1="4.89281495665924" x2="1.74999999923502" y2="4.76781495678674"/>
    <line x1="1.74999999923502" y1="4.76781495678674" x2="2.24999999872502" y2="4.76781495678674"/>
  </g>
</svg>
