<?xml version="1.0" standalone="no"?>
<!DOCTYPE svg PUBLIC "-//W3C//DTD SVG 1.1//EN" "http://www.w3.org/Graphics/SVG/1.1/DTD/svg11.dtd">
<svg width="3.99999999796in" height="4.99999999694in"
 viewBox="0 0 3.99999999796 4.99999999694"
 xmlns="http://www.w3.org/2000/svg" version="1.1"
 xmlns:xlink="http://www.w3.org/1999/xlink">
<desc>Output from Flights of Ideas SVG Sketchup Plugin</desc>

  <g id="face0" fill="none" stroke="rgb(0,0,0)" stroke-width=".001" stroke-miterlimit="4" stroke-dasharray="none" stroke-linejoin="round" stroke-linecap="round">
    <line x1="1.749999999235" y1="2.49999999847" x2="1.37499999961751" y2="2.49999999847"/>
    <line x1="1.37499999961751" y1="2.49999999847" x2="1.37499999961751" y2="1.49999999949001"/>
    <line x1="1.37499999961751" y1="1.49999999949001" x2="1.0" y2="1.49999999949001"/>
    <line x1="1.0" y1="1.49999999949001" x2="1.0" y2="2.99999999796"/>
    <line x1="1.0" y1="2.99999999796" x2="1.9599999990208" y2="2.99999999796001"/>
    <line x1="1.9599999990208" y1="2.99999999796001" x2="1.9599999990208" y2="2.49999999847"/>
    <line x1="1.9599999990208" y1="2.49999999847" x2="2.0399999989392" y2="2.49999999847"/>
    <line x1="2.0399999989392" y1="2.49999999847" x2="2.0399999989392" y2="2.99999999796001"/>
    <line x1="2.0399999989392" y1="2.99999999796001" x2="2.6249999983425" y2="2.99999999795999"/>
    <line x1="2.6249999983425" y1="2.99999999795999" x2="2.6249999983425" y2="3.99999999693999"/>
    <line x1="2.6249999983425" y1="3.99999999693999" x2="2.99999999795999" y2="3.99999999694"/>
    <line x1="2.99999999795999" y1="3.99999999694" x2="2.99999999796" y2="2.49999999847"/>
    <line x1="2.99999999796" y1="2.49999999847" x2="2.249999998725" y2="2.49999999847"/>
    <line x1="2.249999998725" y1="2.49999999847" x2="2.249999998725" y2="1.0"/>
    <line x1="2.249999998725" y1="1.0" x2="1.749999999235" y2="1.0"/>
    <line x1="1.749999999235" y1="1.0" x2="1.749999999235" y2="2.49999999847"/>
  </g>
</svg>
