<?xml version="1.0" standalone="no"?>
<!DOCTYPE svg PUBLIC "-//W3C//DTD SVG 1.1//EN" "http://www.w3.org/Graphics/SVG/1.1/DTD/svg11.dtd">
<svg width="4.8749999970675in" height="5.99999999591999in"
 viewBox="0 0 4.8749999970675 5.99999999591999"
 xmlns="http://www.w3.org/2000/svg" version="1.1"
 xmlns:xlink="http://www.w3.org/1999/xlink">
<desc>Output from Flights of Ideas SVG Sketchup Plugin</desc>

  <g id="face0" fill="none" stroke="rgb(0,0,0)" stroke-width=".001" stroke-miterlimit="4" stroke-dasharray="none" stroke-linejoin="round" stroke-linecap="round">
    <line x1="1.0" y1="3.81249999713124" x2="1.0" y2="4.31249999662124"/>
    <line x1="1.0" y1="4.31249999662124" x2="1.1249999998725" y2="4.31249999662124"/>
    <line x1="1.1249999998725" y1="4.31249999662124" x2="1.1249999998725" y2="4.87499999604749"/>
    <line x1="1.1249999998725" y1="4.87499999604749" x2="1.74999999923499" y2="4.87499999604749"/>
    <line x1="1.74999999923499" y1="4.87499999604749" x2="1.74999999923499" y2="4.99999999591999"/>
    <line x1="1.74999999923499" y1="4.99999999591999" x2="2.249999998725" y2="4.99999999591999"/>
    <line x1="2.249999998725" y1="4.99999999591999" x2="2.249999998725" y2="4.87499999604749"/>
    <line x1="2.249999998725" y1="4.87499999604749" x2="2.749999998215" y2="4.87499999604749"/>
    <line x1="2.749999998215" y1="4.87499999604749" x2="2.749999998215" y2="4.99999999591999"/>
    <line x1="2.749999998215" y1="4.99999999591999" x2="3.249999997705" y2="4.99999999591999"/>
    <line x1="3.249999997705" y1="4.99999999591999" x2="3.249999997705" y2="4.87499999604749"/>
    <line x1="3.249999997705" y1="4.87499999604749" x2="3.8749999970675" y2="4.87499999604749"/>
    <line x1="3.8749999970675" y1="4.87499999604749" x2="3.8749999970675" y2="1.81249999917124"/>
    <line x1="3.8749999970675" y1="1.81249999917124" x2="2.749999998215" y2="1.81249999917124"/>
    <line x1="2.749999998215" y1="1.81249999917124" x2="2.749999998215" y2="1.0"/>
    <line x1="2.749999998215" y1="1.0" x2="2.249999998725" y2="1.0"/>
    <line x1="2.249999998725" y1="1.0" x2="2.249999998725" y2="1.1249999998725"/>
    <line x1="2.249999998725" y1="1.1249999998725" x2="1.74999999923499" y2="1.1249999998725"/>
    <line x1="1.74999999923499" y1="1.1249999998725" x2="1.74999999923499" y2="1.0"/>
    <line x1="1.74999999923499" y1="1.0" x2="1.0" y2="1.0"/>
    <line x1="1.0" y1="1.0" x2="1.0" y2="1.31249999968124"/>
    <line x1="1.0" y1="1.31249999968124" x2="1.1249999998725" y2="1.31249999968124"/>
    <line x1="1.1249999998725" y1="1.31249999968124" x2="1.1249999998725" y2="1.81249999917124"/>
    <line x1="1.1249999998725" y1="1.81249999917124" x2="1.0" y2="1.81249999917124"/>
    <line x1="1.0" y1="1.81249999917124" x2="1.0" y2="2.31249999866124"/>
    <line x1="1.0" y1="2.31249999866124" x2="1.1249999998725" y2="2.31249999866124"/>
    <line x1="1.1249999998725" y1="2.31249999866124" x2="1.1249999998725" y2="2.81249999815124"/>
    <line x1="1.1249999998725" y1="2.81249999815124" x2="1.0" y2="2.81249999815124"/>
    <line x1="1.0" y1="2.81249999815124" x2="1.0" y2="3.31249999764124"/>
    <line x1="1.0" y1="3.31249999764124" x2="1.1249999998725" y2="3.31249999764124"/>
    <line x1="1.1249999998725" y1="3.31249999764124" x2="1.1249999998725" y2="3.81249999713124"/>
    <line x1="1.1249999998725" y1="3.81249999713124" x2="1.0" y2="3.81249999713124"/>
    <line x1="2.92943745117294" y1="3.00685506502735" x2="2.92716535236499" y2="3.00564060291251"/>
    <line x1="2.92716535236499" y1="3.00564060291251" x2="2.92497754791763" y2="3.00428013868233"/>
    <line x1="2.92497754791763" y1="3.00428013868233" x2="2.92288340634538" y2="3.00277949805349"/>
    <line x1="2.92288340634538" y1="3.00277949805349" x2="2.92089189508398" y2="3.00114510699956"/>
    <line x1="2.92089189508398" y1="3.00114510699956" x2="2.91901154209037" y2="2.99938396423394"/>
    <line x1="2.91901154209037" y1="2.99938396423394" x2="2.91725039932474" y2="2.99750361124032"/>
    <line x1="2.91725039932474" y1="2.99750361124032" x2="2.91561600827081" y2="2.99551209997892"/>
    <line x1="2.91561600827081" y1="2.99551209997892" x2="2.91411536764198" y2="2.99341795840668"/>
    <line x1="2.91411536764198" y1="2.99341795840668" x2="2.91275490341179" y2="2.99123015395932"/>
    <line x1="2.91275490341179" y1="2.99123015395932" x2="2.91154044129696" y2="2.98895805515136"/>
    <line x1="2.91154044129696" y1="2.98895805515136" x2="2.9104771818107" y2="2.98661139145872"/>
    <line x1="2.9104771818107" y1="2.98661139145872" x2="2.90956967799336" y2="2.98420021165559"/>
    <line x1="2.90956967799336" y1="2.98420021165559" x2="2.90882181591562" y2="2.98173484078406"/>
    <line x1="2.90882181591562" y1="2.98173484078406" x2="2.90823679803771" y2="2.9792258359407"/>
    <line x1="2.90823679803771" y1="2.9792258359407" x2="2.907817129496" y2="2.97668394106944"/>
    <line x1="2.907817129496" y1="2.97668394106944" x2="2.90756460737558" y2="2.97412004095433"/>
    <line x1="2.90756460737558" y1="2.97412004095433" x2="2.90748031301498" y2="2.97154511460932"/>
    <line x1="2.90748031301498" y1="2.97154511460932" x2="2.90756460737558" y2="2.9689701882643"/>
    <line x1="2.90756460737558" y1="2.9689701882643" x2="2.907817129496" y2="2.9664062881492"/>
    <line x1="2.907817129496" y1="2.9664062881492" x2="2.90823679803771" y2="2.96386439327793"/>
    <line x1="2.90823679803771" y1="2.96386439327793" x2="2.90882181591562" y2="2.96135538843457"/>
    <line x1="2.90882181591562" y1="2.96135538843457" x2="2.90956967799337" y2="2.95889001756305"/>
    <line x1="2.90956967799337" y1="2.95889001756305" x2="2.9104771818107" y2="2.95647883775992"/>
    <line x1="2.9104771818107" y1="2.95647883775992" x2="2.91154044129696" y2="2.95413217406728"/>
    <line x1="2.91154044129696" y1="2.95413217406728" x2="2.9127549034118" y2="2.95186007525932"/>
    <line x1="2.9127549034118" y1="2.95186007525932" x2="2.91411536764198" y2="2.94967227081196"/>
    <line x1="2.91411536764198" y1="2.94967227081196" x2="2.91561600827081" y2="2.94757812923972"/>
    <line x1="2.91561600827081" y1="2.94757812923972" x2="2.91725039932475" y2="2.94558661797831"/>
    <line x1="2.91725039932475" y1="2.94558661797831" x2="2.91901154209037" y2="2.9437062649847"/>
    <line x1="2.91901154209037" y1="2.9437062649847" x2="2.92089189508398" y2="2.94194512221908"/>
    <line x1="2.92089189508398" y1="2.94194512221908" x2="2.92288340634538" y2="2.94031073116514"/>
    <line x1="2.92288340634538" y1="2.94031073116514" x2="2.92497754791763" y2="2.93881009053631"/>
    <line x1="2.92497754791763" y1="2.93881009053631" x2="2.92716535236499" y2="2.93744962630613"/>
    <line x1="2.92716535236499" y1="2.93744962630613" x2="2.92943745117295" y2="2.93623516419129"/>
    <line x1="2.92943745117295" y1="2.93623516419129" x2="2.93178411486559" y2="2.93517190470503"/>
    <line x1="2.93178411486559" y1="2.93517190470503" x2="2.93419529466872" y2="2.93426440088769"/>
    <line x1="2.93419529466872" y1="2.93426440088769" x2="2.93666066554024" y2="2.93351653880995"/>
    <line x1="2.93666066554024" y1="2.93351653880995" x2="2.9391696703836" y2="2.93293152093204"/>
    <line x1="2.9391696703836" y1="2.93293152093204" x2="2.94171156525488" y2="2.93251185239032"/>
    <line x1="2.94171156525488" y1="2.93251185239032" x2="2.94427546536997" y2="2.93225933026992"/>
    <line x1="2.94427546536997" y1="2.93225933026992" x2="2.94685039171499" y2="2.93217503590932"/>
    <line x1="2.94685039171499" y1="2.93217503590932" x2="2.94942531806001" y2="2.93225933026992"/>
    <line x1="2.94942531806001" y1="2.93225933026992" x2="2.9519892181751" y2="2.93251185239032"/>
    <line x1="2.9519892181751" y1="2.93251185239032" x2="2.95453111304637" y2="2.93293152093204"/>
    <line x1="2.95453111304637" y1="2.93293152093204" x2="2.95704011788973" y2="2.93351653880995"/>
    <line x1="2.95704011788973" y1="2.93351653880995" x2="2.95950548876127" y2="2.9342644008877"/>
    <line x1="2.95950548876127" y1="2.9342644008877" x2="2.96191666856439" y2="2.93517190470503"/>
    <line x1="2.96191666856439" y1="2.93517190470503" x2="2.96426333225704" y2="2.93623516419129"/>
    <line x1="2.96426333225704" y1="2.93623516419129" x2="2.96653543106499" y2="2.93744962630613"/>
    <line x1="2.96653543106499" y1="2.93744962630613" x2="2.96872323551235" y2="2.93881009053631"/>
    <line x1="2.96872323551235" y1="2.93881009053631" x2="2.97081737708459" y2="2.94031073116515"/>
    <line x1="2.97081737708459" y1="2.94031073116515" x2="2.97280888834599" y2="2.94194512221908"/>
    <line x1="2.97280888834599" y1="2.94194512221908" x2="2.97468924133961" y2="2.94370626498471"/>
    <line x1="2.97468924133961" y1="2.94370626498471" x2="2.97645038410523" y2="2.94558661797832"/>
    <line x1="2.97645038410523" y1="2.94558661797832" x2="2.97808477515916" y2="2.94757812923972"/>
    <line x1="2.97808477515916" y1="2.94757812923972" x2="2.97958541578799" y2="2.94967227081196"/>
    <line x1="2.97958541578799" y1="2.94967227081196" x2="2.98094588001818" y2="2.95186007525932"/>
    <line x1="2.98094588001818" y1="2.95186007525932" x2="2.98216034213301" y2="2.95413217406728"/>
    <line x1="2.98216034213301" y1="2.95413217406728" x2="2.98322360161927" y2="2.95647883775992"/>
    <line x1="2.98322360161927" y1="2.95647883775992" x2="2.98413110543661" y2="2.95889001756305"/>
    <line x1="2.98413110543661" y1="2.95889001756305" x2="2.98487896751435" y2="2.96135538843458"/>
    <line x1="2.98487896751435" y1="2.96135538843458" x2="2.98546398539226" y2="2.96386439327794"/>
    <line x1="2.98546398539226" y1="2.96386439327794" x2="2.98588365393399" y2="2.96640628814921"/>
    <line x1="2.98588365393399" y1="2.96640628814921" x2="2.98613617605439" y2="2.9689701882643"/>
    <line x1="2.98613617605439" y1="2.9689701882643" x2="2.98622047041499" y2="2.97154511460932"/>
    <line x1="2.98622047041499" y1="2.97154511460932" x2="2.98613617605439" y2="2.97412004095434"/>
    <line x1="2.98613617605439" y1="2.97412004095434" x2="2.98588365393399" y2="2.97668394106944"/>
    <line x1="2.98588365393399" y1="2.97668394106944" x2="2.98546398539226" y2="2.97922583594071"/>
    <line x1="2.98546398539226" y1="2.97922583594071" x2="2.98487896751435" y2="2.98173484078407"/>
    <line x1="2.98487896751435" y1="2.98173484078407" x2="2.98413110543661" y2="2.98420021165559"/>
    <line x1="2.98413110543661" y1="2.98420021165559" x2="2.98322360161927" y2="2.98661139145872"/>
    <line x1="2.98322360161927" y1="2.98661139145872" x2="2.98216034213301" y2="2.98895805515136"/>
    <line x1="2.98216034213301" y1="2.98895805515136" x2="2.98094588001818" y2="2.99123015395932"/>
    <line x1="2.98094588001818" y1="2.99123015395932" x2="2.97958541578799" y2="2.99341795840668"/>
    <line x1="2.97958541578799" y1="2.99341795840668" x2="2.97808477515916" y2="2.99551209997892"/>
    <line x1="2.97808477515916" y1="2.99551209997892" x2="2.97645038410523" y2="2.99750361124033"/>
    <line x1="2.97645038410523" y1="2.99750361124033" x2="2.97468924133961" y2="2.99938396423394"/>
    <line x1="2.97468924133961" y1="2.99938396423394" x2="2.97280888834599" y2="3.00114510699956"/>
    <line x1="2.97280888834599" y1="3.00114510699956" x2="2.97081737708459" y2="3.0027794980535"/>
    <line x1="2.97081737708459" y1="3.0027794980535" x2="2.96872323551235" y2="3.00428013868233"/>
    <line x1="2.96872323551235" y1="3.00428013868233" x2="2.96653543106498" y2="3.00564060291251"/>
    <line x1="2.96653543106498" y1="3.00564060291251" x2="2.96426333225703" y2="3.00685506502735"/>
    <line x1="2.96426333225703" y1="3.00685506502735" x2="2.96191666856438" y2="3.00791832451361"/>
    <line x1="2.96191666856438" y1="3.00791832451361" x2="2.95950548876125" y2="3.00882582833095"/>
    <line x1="2.95950548876125" y1="3.00882582833095" x2="2.95704011788973" y2="3.00957369040868"/>
    <line x1="2.95704011788973" y1="3.00957369040868" x2="2.95453111304637" y2="3.0101587082866"/>
    <line x1="2.95453111304637" y1="3.0101587082866" x2="2.9519892181751" y2="3.01057837682832"/>
    <line x1="2.9519892181751" y1="3.01057837682832" x2="2.94942531806001" y2="3.01083089894872"/>
    <line x1="2.94942531806001" y1="3.01083089894872" x2="2.94685039171498" y2="3.01091519330932"/>
    <line x1="2.94685039171498" y1="3.01091519330932" x2="2.94427546536996" y2="3.01083089894872"/>
    <line x1="2.94427546536996" y1="3.01083089894872" x2="2.94171156525487" y2="3.01057837682832"/>
    <line x1="2.94171156525487" y1="3.01057837682832" x2="2.9391696703836" y2="3.0101587082866"/>
    <line x1="2.9391696703836" y1="3.0101587082866" x2="2.93666066554024" y2="3.00957369040868"/>
    <line x1="2.93666066554024" y1="3.00957369040868" x2="2.93419529466872" y2="3.00882582833094"/>
    <line x1="2.93419529466872" y1="3.00882582833094" x2="2.93178411486559" y2="3.00791832451361"/>
    <line x1="2.93178411486559" y1="3.00791832451361" x2="2.92943745117294" y2="3.00685506502735"/>
    <line x1="2.92497754791764" y1="3.62071985660016" x2="2.927165352365" y2="3.61935939236998"/>
    <line x1="2.927165352365" y1="3.61935939236998" x2="2.92943745117296" y2="3.61814493025514"/>
    <line x1="2.92943745117296" y1="3.61814493025514" x2="2.93178411486559" y2="3.61708167076888"/>
    <line x1="2.93178411486559" y1="3.61708167076888" x2="2.93419529466873" y2="3.61617416695154"/>
    <line x1="2.93419529466873" y1="3.61617416695154" x2="2.93666066554026" y2="3.61542630487381"/>
    <line x1="2.93666066554026" y1="3.61542630487381" x2="2.93916967038362" y2="3.61484128699589"/>
    <line x1="2.93916967038362" y1="3.61484128699589" x2="2.94171156525488" y2="3.61442161845417"/>
    <line x1="2.94171156525488" y1="3.61442161845417" x2="2.94427546536998" y2="3.61416909633377"/>
    <line x1="2.94427546536998" y1="3.61416909633377" x2="2.94685039171501" y2="3.61408480197317"/>
    <line x1="2.94685039171501" y1="3.61408480197317" x2="2.94942531806002" y2="3.61416909633377"/>
    <line x1="2.94942531806002" y1="3.61416909633377" x2="2.95198921817512" y2="3.61442161845417"/>
    <line x1="2.95198921817512" y1="3.61442161845417" x2="2.95453111304638" y2="3.61484128699589"/>
    <line x1="2.95453111304638" y1="3.61484128699589" x2="2.95704011788975" y2="3.6154263048738"/>
    <line x1="2.95704011788975" y1="3.6154263048738" x2="2.95950548876127" y2="3.61617416695155"/>
    <line x1="2.95950548876127" y1="3.61617416695155" x2="2.9619166685644" y2="3.61708167076888"/>
    <line x1="2.9619166685644" y1="3.61708167076888" x2="2.96426333225705" y2="3.61814493025514"/>
    <line x1="2.96426333225705" y1="3.61814493025514" x2="2.966535431065" y2="3.61935939236997"/>
    <line x1="2.966535431065" y1="3.61935939236997" x2="2.96872323551236" y2="3.62071985660016"/>
    <line x1="2.96872323551236" y1="3.62071985660016" x2="2.9708173770846" y2="3.622220497229"/>
    <line x1="2.9708173770846" y1="3.622220497229" x2="2.972808888346" y2="3.62385488828293"/>
    <line x1="2.972808888346" y1="3.62385488828293" x2="2.97468924133962" y2="3.62561603104855"/>
    <line x1="2.97468924133962" y1="3.62561603104855" x2="2.97645038410524" y2="3.62749638404217"/>
    <line x1="2.97645038410524" y1="3.62749638404217" x2="2.97808477515918" y2="3.62948789530357"/>
    <line x1="2.97808477515918" y1="3.62948789530357" x2="2.97958541578802" y2="3.63158203687581"/>
    <line x1="2.97958541578802" y1="3.63158203687581" x2="2.9809458800182" y2="3.63376984132316"/>
    <line x1="2.9809458800182" y1="3.63376984132316" x2="2.98216034213304" y2="3.63604194013112"/>
    <line x1="2.98216034213304" y1="3.63604194013112" x2="2.98322360161929" y2="3.63838860382377"/>
    <line x1="2.98322360161929" y1="3.63838860382377" x2="2.98413110543663" y2="3.64079978362689"/>
    <line x1="2.98413110543663" y1="3.64079978362689" x2="2.98487896751437" y2="3.64326515449842"/>
    <line x1="2.98487896751437" y1="3.64326515449842" x2="2.98546398539228" y2="3.64577415934179"/>
    <line x1="2.98546398539228" y1="3.64577415934179" x2="2.985883653934" y2="3.64831605421306"/>
    <line x1="2.985883653934" y1="3.64831605421306" x2="2.9861361760544" y2="3.65087995432815"/>
    <line x1="2.9861361760544" y1="3.65087995432815" x2="2.986220470415" y2="3.65345488067317"/>
    <line x1="2.986220470415" y1="3.65345488067317" x2="2.9861361760544" y2="3.65602980701819"/>
    <line x1="2.9861361760544" y1="3.65602980701819" x2="2.985883653934" y2="3.65859370713328"/>
    <line x1="2.985883653934" y1="3.65859370713328" x2="2.98546398539228" y2="3.66113560200455"/>
    <line x1="2.98546398539228" y1="3.66113560200455" x2="2.98487896751437" y2="3.66364460684791"/>
    <line x1="2.98487896751437" y1="3.66364460684791" x2="2.98413110543663" y2="3.66610997771944"/>
    <line x1="2.98413110543663" y1="3.66610997771944" x2="2.98322360161929" y2="3.66852115752257"/>
    <line x1="2.98322360161929" y1="3.66852115752257" x2="2.98216034213304" y2="3.67086782121521"/>
    <line x1="2.98216034213304" y1="3.67086782121521" x2="2.9809458800182" y2="3.67313992002317"/>
    <line x1="2.9809458800182" y1="3.67313992002317" x2="2.97958541578802" y2="3.67532772447053"/>
    <line x1="2.97958541578802" y1="3.67532772447053" x2="2.97808477515918" y2="3.67742186604277"/>
    <line x1="2.97808477515918" y1="3.67742186604277" x2="2.97645038410524" y2="3.67941337730417"/>
    <line x1="2.97645038410524" y1="3.67941337730417" x2="2.97468924133962" y2="3.68129373029779"/>
    <line x1="2.97468924133962" y1="3.68129373029779" x2="2.972808888346" y2="3.68305487306341"/>
    <line x1="2.972808888346" y1="3.68305487306341" x2="2.9708173770846" y2="3.68468926411734"/>
    <line x1="2.9708173770846" y1="3.68468926411734" x2="2.96872323551236" y2="3.68618990474618"/>
    <line x1="2.96872323551236" y1="3.68618990474618" x2="2.966535431065" y2="3.68755036897637"/>
    <line x1="2.966535431065" y1="3.68755036897637" x2="2.96426333225705" y2="3.68876483109119"/>
    <line x1="2.96426333225705" y1="3.68876483109119" x2="2.9619166685644" y2="3.68982809057746"/>
    <line x1="2.9619166685644" y1="3.68982809057746" x2="2.95950548876127" y2="3.6907355943948"/>
    <line x1="2.95950548876127" y1="3.6907355943948" x2="2.95704011788975" y2="3.69148345647253"/>
    <line x1="2.95704011788975" y1="3.69148345647253" x2="2.95453111304638" y2="3.69206847435045"/>
    <line x1="2.95453111304638" y1="3.69206847435045" x2="2.95198921817512" y2="3.69248814289216"/>
    <line x1="2.95198921817512" y1="3.69248814289216" x2="2.94942531806002" y2="3.69274066501257"/>
    <line x1="2.94942531806002" y1="3.69274066501257" x2="2.94685039171501" y2="3.69282495937317"/>
    <line x1="2.94685039171501" y1="3.69282495937317" x2="2.94427546536998" y2="3.69274066501257"/>
    <line x1="2.94427546536998" y1="3.69274066501257" x2="2.94171156525488" y2="3.69248814289216"/>
    <line x1="2.94171156525488" y1="3.69248814289216" x2="2.93916967038362" y2="3.69206847435045"/>
    <line x1="2.93916967038362" y1="3.69206847435045" x2="2.93666066554026" y2="3.69148345647253"/>
    <line x1="2.93666066554026" y1="3.69148345647253" x2="2.93419529466873" y2="3.69073559439479"/>
    <line x1="2.93419529466873" y1="3.69073559439479" x2="2.93178411486559" y2="3.68982809057746"/>
    <line x1="2.93178411486559" y1="3.68982809057746" x2="2.92943745117296" y2="3.6887648310912"/>
    <line x1="2.92943745117296" y1="3.6887648310912" x2="2.927165352365" y2="3.68755036897636"/>
    <line x1="2.927165352365" y1="3.68755036897636" x2="2.92497754791764" y2="3.68618990474618"/>
    <line x1="2.92497754791764" y1="3.68618990474618" x2="2.92288340634541" y2="3.68468926411734"/>
    <line x1="2.92288340634541" y1="3.68468926411734" x2="2.92089189508399" y2="3.68305487306341"/>
    <line x1="2.92089189508399" y1="3.68305487306341" x2="2.91901154209039" y2="3.68129373029779"/>
    <line x1="2.91901154209039" y1="3.68129373029779" x2="2.91725039932476" y2="3.67941337730418"/>
    <line x1="2.91725039932476" y1="3.67941337730418" x2="2.91561600827082" y2="3.67742186604277"/>
    <line x1="2.91561600827082" y1="3.67742186604277" x2="2.91411536764199" y2="3.67532772447053"/>
    <line x1="2.91411536764199" y1="3.67532772447053" x2="2.9127549034118" y2="3.67313992002317"/>
    <line x1="2.9127549034118" y1="3.67313992002317" x2="2.91154044129697" y2="3.67086782121521"/>
    <line x1="2.91154044129697" y1="3.67086782121521" x2="2.91047718181071" y2="3.66852115752257"/>
    <line x1="2.91047718181071" y1="3.66852115752257" x2="2.90956967799337" y2="3.66610997771944"/>
    <line x1="2.90956967799337" y1="3.66610997771944" x2="2.90882181591564" y2="3.66364460684791"/>
    <line x1="2.90882181591564" y1="3.66364460684791" x2="2.90823679803772" y2="3.66113560200455"/>
    <line x1="2.90823679803772" y1="3.66113560200455" x2="2.907817129496" y2="3.65859370713328"/>
    <line x1="2.907817129496" y1="3.65859370713328" x2="2.90756460737559" y2="3.65602980701819"/>
    <line x1="2.90756460737559" y1="3.65602980701819" x2="2.907480313015" y2="3.65345488067316"/>
    <line x1="2.907480313015" y1="3.65345488067316" x2="2.90756460737559" y2="3.65087995432815"/>
    <line x1="2.90756460737559" y1="3.65087995432815" x2="2.907817129496" y2="3.64831605421306"/>
    <line x1="2.907817129496" y1="3.64831605421306" x2="2.90823679803772" y2="3.64577415934179"/>
    <line x1="2.90823679803772" y1="3.64577415934179" x2="2.90882181591564" y2="3.64326515449842"/>
    <line x1="2.90882181591564" y1="3.64326515449842" x2="2.90956967799337" y2="3.64079978362689"/>
    <line x1="2.90956967799337" y1="3.64079978362689" x2="2.91047718181071" y2="3.63838860382377"/>
    <line x1="2.91047718181071" y1="3.63838860382377" x2="2.91154044129697" y2="3.63604194013112"/>
    <line x1="2.91154044129697" y1="3.63604194013112" x2="2.9127549034118" y2="3.63376984132317"/>
    <line x1="2.9127549034118" y1="3.63376984132317" x2="2.91411536764199" y2="3.63158203687581"/>
    <line x1="2.91411536764199" y1="3.63158203687581" x2="2.91561600827082" y2="3.62948789530357"/>
    <line x1="2.91561600827082" y1="3.62948789530357" x2="2.91725039932476" y2="3.62749638404216"/>
    <line x1="2.91725039932476" y1="3.62749638404216" x2="2.91901154209039" y2="3.62561603104855"/>
    <line x1="2.91901154209039" y1="3.62561603104855" x2="2.92089189508399" y2="3.62385488828292"/>
    <line x1="2.92089189508399" y1="3.62385488828292" x2="2.92288340634541" y2="3.62222049722899"/>
    <line x1="2.92288340634541" y1="3.62222049722899" x2="2.92497754791764" y2="3.62071985660016"/>
    <line x1="3.47249999747804" y1="3.19249999776365" x2="3.65249999729443" y2="3.19249999776365"/>
    <line x1="3.65249999729443" y1="3.19249999776365" x2="3.65249999729443" y2="3.43249999751885"/>
    <line x1="3.65249999729443" y1="3.43249999751885" x2="3.47249999747804" y2="3.43249999751885"/>
    <line x1="3.47249999747804" y1="3.43249999751885" x2="3.47249999747804" y2="3.19249999776365"/>
    <line x1="1.49999999949" y1="3.43749999751375" x2="1.49999999949" y2="3.18749999776875"/>
    <line x1="1.49999999949" y1="3.18749999776875" x2="1.50006692605538" y2="3.1834101124202"/>
    <line x1="1.50006692605538" y1="3.1834101124202" x2="1.5002676340849" y2="3.17932460662332"/>
    <line x1="1.5002676340849" y1="3.17932460662332" x2="1.50060190865536" y2="3.17524785524005"/>
    <line x1="1.50060190865536" y1="3.17524785524005" x2="1.50106939181719" y2="3.17118422375788"/>
    <line x1="1.50106939181719" y1="3.17118422375788" x2="1.50166958297768" y2="3.16713806361519"/>
    <line x1="1.50166958297768" y1="3.16713806361519" x2="1.50240183943715" y2="3.1631137075416"/>
    <line x1="1.50240183943715" y1="3.1631137075416" x2="1.503265377077" y2="3.1591154649184"/>
    <line x1="1.503265377077" y1="3.1591154649184" x2="1.50425927119952" y2="3.15514761716393"/>
    <line x1="1.50425927119952" y1="3.15514761716393" x2="1.50538245751798" y2="3.15121441314895"/>
    <line x1="1.50538245751798" y1="3.15121441314895" x2="1.50663373329635" y2="3.14732006464684"/>
    <line x1="1.50663373329635" y1="3.14732006464684" x2="1.50801175863717" y2="3.1434687418235"/>
    <line x1="1.50801175863717" y1="3.1434687418235" x2="1.50951505791638" y2="3.1396645687719"/>
    <line x1="1.50951505791638" y1="3.1396645687719" x2="1.51114202136349" y2="3.13591161909582"/>
    <line x1="1.51114202136349" y1="3.13591161909582" x2="1.51289090678527" y2="3.13221391154777"/>
    <line x1="1.51289090678527" y1="3.13221391154777" x2="1.5147598414314" y2="3.1285754057256"/>
    <line x1="1.5147598414314" y1="3.1285754057256" x2="1.51674682399986" y2="3.1249999978325"/>
    <line x1="1.51674682399986" y1="3.1249999978325" x2="1.51884972677995" y2="3.12149151650478"/>
    <line x1="1.51884972677995" y1="3.12149151650478" x2="1.52106629793069" y2="3.11805371871213"/>
    <line x1="1.52106629793069" y1="3.11805371871213" x2="1.52339416389218" y2="3.11469028573454"/>
    <line x1="1.52339416389218" y1="3.11469028573454" x2="1.52583083192725" y2="3.11140481922027"/>
    <line x1="1.52583083192725" y1="3.11140481922027" x2="1.52837369279072" y2="3.10820083732917"/>
    <line x1="1.52837369279072" y1="3.10820083732917" x2="1.53102002352349" y2="3.10508177096531"/>
    <line x1="1.53102002352349" y1="3.10508177096531" x2="1.53376699036833" y2="3.10205096010305"/>
    <line x1="1.53376699036833" y1="3.10205096010305" x2="1.53661165180434" y2="3.09911165021058"/>
    <line x1="1.53661165180434" y1="3.09911165021058" x2="1.5395509616968" y2="3.09626698877458"/>
    <line x1="1.5395509616968" y1="3.09626698877458" x2="1.54258177255906" y2="3.09352002192974"/>
    <line x1="1.54258177255906" y1="3.09352002192974" x2="1.54570083892293" y2="3.09087369119696"/>
    <line x1="1.54570083892293" y1="3.09087369119696" x2="1.54890482081402" y2="3.0883308303335"/>
    <line x1="1.54890482081402" y1="3.0883308303335" x2="1.55219028732829" y2="3.08589416229843"/>
    <line x1="1.55219028732829" y1="3.08589416229843" x2="1.55555372030588" y2="3.08356629633694"/>
    <line x1="1.55555372030588" y1="3.08356629633694" x2="1.55899151809854" y2="3.0813497251862"/>
    <line x1="1.55899151809854" y1="3.0813497251862" x2="1.56249999942625" y2="3.07924682240611"/>
    <line x1="1.56249999942625" y1="3.07924682240611" x2="1.56607540731935" y2="3.07725983983765"/>
    <line x1="1.56607540731935" y1="3.07725983983765" x2="1.56971391314151" y2="3.07539090519151"/>
    <line x1="1.56971391314151" y1="3.07539090519151" x2="1.57341162068957" y2="3.07364201976974"/>
    <line x1="1.57341162068957" y1="3.07364201976974" x2="1.57716457036566" y2="3.07201505632263"/>
    <line x1="1.57716457036566" y1="3.07201505632263" x2="1.58096874341726" y2="3.07051175704341"/>
    <line x1="1.58096874341726" y1="3.07051175704341" x2="1.58482006624059" y2="3.06913373170259"/>
    <line x1="1.58482006624059" y1="3.06913373170259" x2="1.5887144147427" y2="3.06788245592423"/>
    <line x1="1.5887144147427" y1="3.06788245592423" x2="1.59264761875768" y2="3.06675926960577"/>
    <line x1="1.59264761875768" y1="3.06675926960577" x2="1.59661546651216" y2="3.06576537548325"/>
    <line x1="1.59661546651216" y1="3.06576537548325" x2="1.60061370913535" y2="3.06490183784339"/>
    <line x1="1.60061370913535" y1="3.06490183784339" x2="1.60463806520894" y2="3.06416958138393"/>
    <line x1="1.60463806520894" y1="3.06416958138393" x2="1.60868422535164" y2="3.06356939022343"/>
    <line x1="1.60868422535164" y1="3.06356939022343" x2="1.6127478568338" y2="3.06310190706161"/>
    <line x1="1.6127478568338" y1="3.06310190706161" x2="1.61682460821707" y2="3.06276763249115"/>
    <line x1="1.61682460821707" y1="3.06276763249115" x2="1.62091011401395" y2="3.06256692446163"/>
    <line x1="1.62091011401395" y1="3.06256692446163" x2="1.62499999936249" y2="3.06249999789625"/>
    <line x1="1.62499999936249" y1="3.06249999789625" x2="2.1249999988525" y2="3.06249999789625"/>
    <line x1="2.1249999988525" y1="3.06249999789625" x2="2.12908988420104" y2="3.06256692446163"/>
    <line x1="2.12908988420104" y1="3.06256692446163" x2="2.13317538999793" y2="3.06276763249115"/>
    <line x1="2.13317538999793" y1="3.06276763249115" x2="2.1372521413812" y2="3.06310190706161"/>
    <line x1="2.1372521413812" y1="3.06310190706161" x2="2.14131577286336" y2="3.06356939022343"/>
    <line x1="2.14131577286336" y1="3.06356939022343" x2="2.14536193300606" y2="3.06416958138393"/>
    <line x1="2.14536193300606" y1="3.06416958138393" x2="2.14938628907964" y2="3.06490183784339"/>
    <line x1="2.14938628907964" y1="3.06490183784339" x2="2.15338453170285" y2="3.06576537548325"/>
    <line x1="2.15338453170285" y1="3.06576537548325" x2="2.15735237945732" y2="3.06675926960577"/>
    <line x1="2.15735237945732" y1="3.06675926960577" x2="2.1612855834723" y2="3.06788245592423"/>
    <line x1="2.1612855834723" y1="3.06788245592423" x2="2.16517993197441" y2="3.06913373170259"/>
    <line x1="2.16517993197441" y1="3.06913373170259" x2="2.16903125479774" y2="3.07051175704341"/>
    <line x1="2.16903125479774" y1="3.07051175704341" x2="2.17283542784934" y2="3.07201505632263"/>
    <line x1="2.17283542784934" y1="3.07201505632263" x2="2.17658837752543" y2="3.07364201976974"/>
    <line x1="2.17658837752543" y1="3.07364201976974" x2="2.18028608507348" y2="3.07539090519151"/>
    <line x1="2.18028608507348" y1="3.07539090519151" x2="2.18392459089565" y2="3.07725983983765"/>
    <line x1="2.18392459089565" y1="3.07725983983765" x2="2.18749999878875" y2="3.07924682240611"/>
    <line x1="2.18749999878875" y1="3.07924682240611" x2="2.19100848011647" y2="3.0813497251862"/>
    <line x1="2.19100848011647" y1="3.0813497251862" x2="2.19444627790912" y2="3.08356629633694"/>
    <line x1="2.19444627790912" y1="3.08356629633694" x2="2.1978097108867" y2="3.08589416229843"/>
    <line x1="2.1978097108867" y1="3.08589416229843" x2="2.20109517740097" y2="3.0883308303335"/>
    <line x1="2.20109517740097" y1="3.0883308303335" x2="2.20429915929207" y2="3.09087369119696"/>
    <line x1="2.20429915929207" y1="3.09087369119696" x2="2.20741822565595" y2="3.09352002192974"/>
    <line x1="2.20741822565595" y1="3.09352002192974" x2="2.2104490365182" y2="3.09626698877458"/>
    <line x1="2.2104490365182" y1="3.09626698877458" x2="2.21338834641066" y2="3.09911165021058"/>
    <line x1="2.21338834641066" y1="3.09911165021058" x2="2.21623300784668" y2="3.10205096010305"/>
    <line x1="2.21623300784668" y1="3.10205096010305" x2="2.21897997469151" y2="3.10508177096531"/>
    <line x1="2.21897997469151" y1="3.10508177096531" x2="2.22162630542428" y2="3.10820083732917"/>
    <line x1="2.22162630542428" y1="3.10820083732917" x2="2.22416916628775" y2="3.11140481922027"/>
    <line x1="2.22416916628775" y1="3.11140481922027" x2="2.22660583432281" y2="3.11469028573454"/>
    <line x1="2.22660583432281" y1="3.11469028573454" x2="2.22893370028431" y2="3.11805371871213"/>
    <line x1="2.22893370028431" y1="3.11805371871213" x2="2.23115027143506" y2="3.12149151650478"/>
    <line x1="2.23115027143506" y1="3.12149151650478" x2="2.23325317421514" y2="3.1249999978325"/>
    <line x1="2.23325317421514" y1="3.1249999978325" x2="2.2352401567836" y2="3.1285754057256"/>
    <line x1="2.2352401567836" y1="3.1285754057256" x2="2.23710909142973" y2="3.13221391154777"/>
    <line x1="2.23710909142973" y1="3.13221391154777" x2="2.23885797685151" y2="3.13591161909582"/>
    <line x1="2.23885797685151" y1="3.13591161909582" x2="2.24048494029862" y2="3.1396645687719"/>
    <line x1="2.24048494029862" y1="3.1396645687719" x2="2.24198823957783" y2="3.1434687418235"/>
    <line x1="2.24198823957783" y1="3.1434687418235" x2="2.24336626491866" y2="3.14732006464684"/>
    <line x1="2.24336626491866" y1="3.14732006464684" x2="2.24461754069701" y2="3.15121441314895"/>
    <line x1="2.24461754069701" y1="3.15121441314895" x2="2.24574072701548" y2="3.15514761716393"/>
    <line x1="2.24574072701548" y1="3.15514761716393" x2="2.246734621138" y2="3.1591154649184"/>
    <line x1="2.246734621138" y1="3.1591154649184" x2="2.24759815877785" y2="3.1631137075416"/>
    <line x1="2.24759815877785" y1="3.1631137075416" x2="2.24833041523731" y2="3.16713806361519"/>
    <line x1="2.24833041523731" y1="3.16713806361519" x2="2.24893060639781" y2="3.17118422375788"/>
    <line x1="2.24893060639781" y1="3.17118422375788" x2="2.24939808955964" y2="3.17524785524005"/>
    <line x1="2.24939808955964" y1="3.17524785524005" x2="2.2497323641301" y2="3.17932460662332"/>
    <line x1="2.2497323641301" y1="3.17932460662332" x2="2.24993307215961" y2="3.1834101124202"/>
    <line x1="2.24993307215961" y1="3.1834101124202" x2="2.249999998725" y2="3.18749999776875"/>
    <line x1="2.249999998725" y1="3.18749999776875" x2="2.249999998725" y2="3.43749999751375"/>
    <line x1="2.249999998725" y1="3.43749999751375" x2="2.24993307215961" y2="3.4415898828623"/>
    <line x1="2.24993307215961" y1="3.4415898828623" x2="2.2497323641301" y2="3.44567538865918"/>
    <line x1="2.2497323641301" y1="3.44567538865918" x2="2.24939808955964" y2="3.44975214004245"/>
    <line x1="2.24939808955964" y1="3.44975214004245" x2="2.24893060639781" y2="3.45381577152461"/>
    <line x1="2.24893060639781" y1="3.45381577152461" x2="2.24833041523731" y2="3.4578619316673"/>
    <line x1="2.24833041523731" y1="3.4578619316673" x2="2.24759815877785" y2="3.46188628774089"/>
    <line x1="2.24759815877785" y1="3.46188628774089" x2="2.246734621138" y2="3.46588453036409"/>
    <line x1="2.246734621138" y1="3.46588453036409" x2="2.24574072701548" y2="3.46985237811856"/>
    <line x1="2.24574072701548" y1="3.46985237811856" x2="2.24461754069701" y2="3.47378558213354"/>
    <line x1="2.24461754069701" y1="3.47378558213354" x2="2.24336626491866" y2="3.47767993063566"/>
    <line x1="2.24336626491866" y1="3.47767993063566" x2="2.24198823957783" y2="3.48153125345899"/>
    <line x1="2.24198823957783" y1="3.48153125345899" x2="2.24048494029862" y2="3.48533542651059"/>
    <line x1="2.24048494029862" y1="3.48533542651059" x2="2.23885797685151" y2="3.48908837618668"/>
    <line x1="2.23885797685151" y1="3.48908837618668" x2="2.23710909142973" y2="3.49278608373473"/>
    <line x1="2.23710909142973" y1="3.49278608373473" x2="2.2352401567836" y2="3.49642458955689"/>
    <line x1="2.2352401567836" y1="3.49642458955689" x2="2.23325317421514" y2="3.49999999745"/>
    <line x1="2.23325317421514" y1="3.49999999745" x2="2.23115027143506" y2="3.50350847877772"/>
    <line x1="2.23115027143506" y1="3.50350847877772" x2="2.22893370028431" y2="3.50694627657036"/>
    <line x1="2.22893370028431" y1="3.50694627657036" x2="2.22660583432281" y2="3.51030970954796"/>
    <line x1="2.22660583432281" y1="3.51030970954796" x2="2.22416916628775" y2="3.51359517606222"/>
    <line x1="2.22416916628775" y1="3.51359517606222" x2="2.22162630542428" y2="3.51679915795332"/>
    <line x1="2.22162630542428" y1="3.51679915795332" x2="2.21897997469151" y2="3.51991822431719"/>
    <line x1="2.21897997469151" y1="3.51991822431719" x2="2.21623300784668" y2="3.52294903517945"/>
    <line x1="2.21623300784668" y1="3.52294903517945" x2="2.21338834641066" y2="3.52588834507191"/>
    <line x1="2.21338834641066" y1="3.52588834507191" x2="2.2104490365182" y2="3.52873300650792"/>
    <line x1="2.2104490365182" y1="3.52873300650792" x2="2.20741822565595" y2="3.53147997335276"/>
    <line x1="2.20741822565595" y1="3.53147997335276" x2="2.20429915929207" y2="3.53412630408553"/>
    <line x1="2.20429915929207" y1="3.53412630408553" x2="2.20109517740097" y2="3.536669164949"/>
    <line x1="2.20109517740097" y1="3.536669164949" x2="2.1978097108867" y2="3.53910583298406"/>
    <line x1="2.1978097108867" y1="3.53910583298406" x2="2.19444627790912" y2="3.54143369894555"/>
    <line x1="2.19444627790912" y1="3.54143369894555" x2="2.19100848011647" y2="3.5436502700963"/>
    <line x1="2.19100848011647" y1="3.5436502700963" x2="2.18749999878875" y2="3.54575317287638"/>
    <line x1="2.18749999878875" y1="3.54575317287638" x2="2.18392459089565" y2="3.54774015544485"/>
    <line x1="2.18392459089565" y1="3.54774015544485" x2="2.18028608507348" y2="3.54960909009098"/>
    <line x1="2.18028608507348" y1="3.54960909009098" x2="2.17658837752543" y2="3.55135797551276"/>
    <line x1="2.17658837752543" y1="3.55135797551276" x2="2.17283542784934" y2="3.55298493895986"/>
    <line x1="2.17283542784934" y1="3.55298493895986" x2="2.16903125479774" y2="3.55448823823909"/>
    <line x1="2.16903125479774" y1="3.55448823823909" x2="2.16517993197441" y2="3.5558662635799"/>
    <line x1="2.16517993197441" y1="3.5558662635799" x2="2.1612855834723" y2="3.55711753935826"/>
    <line x1="2.1612855834723" y1="3.55711753935826" x2="2.15735237945732" y2="3.55824072567673"/>
    <line x1="2.15735237945732" y1="3.55824072567673" x2="2.15338453170284" y2="3.55923461979924"/>
    <line x1="2.15338453170284" y1="3.55923461979924" x2="2.14938628907964" y2="3.5600981574391"/>
    <line x1="2.14938628907964" y1="3.5600981574391" x2="2.14536193300606" y2="3.56083041389856"/>
    <line x1="2.14536193300606" y1="3.56083041389856" x2="2.14131577286336" y2="3.56143060505906"/>
    <line x1="2.14131577286336" y1="3.56143060505906" x2="2.1372521413812" y2="3.56189808822088"/>
    <line x1="2.1372521413812" y1="3.56189808822088" x2="2.13317538999793" y2="3.56223236279135"/>
    <line x1="2.13317538999793" y1="3.56223236279135" x2="2.12908988420104" y2="3.56243307082086"/>
    <line x1="2.12908988420104" y1="3.56243307082086" x2="2.1249999988525" y2="3.56249999738625"/>
    <line x1="2.1249999988525" y1="3.56249999738625" x2="1.62499999936249" y2="3.56249999738625"/>
    <line x1="1.62499999936249" y1="3.56249999738625" x2="1.62091011401395" y2="3.56243307082086"/>
    <line x1="1.62091011401395" y1="3.56243307082086" x2="1.61682460821707" y2="3.56223236279135"/>
    <line x1="1.61682460821707" y1="3.56223236279135" x2="1.6127478568338" y2="3.56189808822088"/>
    <line x1="1.6127478568338" y1="3.56189808822088" x2="1.60868422535164" y2="3.56143060505906"/>
    <line x1="1.60868422535164" y1="3.56143060505906" x2="1.60463806520894" y2="3.56083041389856"/>
    <line x1="1.60463806520894" y1="3.56083041389856" x2="1.60061370913535" y2="3.5600981574391"/>
    <line x1="1.60061370913535" y1="3.5600981574391" x2="1.59661546651216" y2="3.55923461979924"/>
    <line x1="1.59661546651216" y1="3.55923461979924" x2="1.59264761875768" y2="3.55824072567673"/>
    <line x1="1.59264761875768" y1="3.55824072567673" x2="1.5887144147427" y2="3.55711753935826"/>
    <line x1="1.5887144147427" y1="3.55711753935826" x2="1.58482006624059" y2="3.5558662635799"/>
    <line x1="1.58482006624059" y1="3.5558662635799" x2="1.58096874341726" y2="3.55448823823909"/>
    <line x1="1.58096874341726" y1="3.55448823823909" x2="1.57716457036566" y2="3.55298493895986"/>
    <line x1="1.57716457036566" y1="3.55298493895986" x2="1.57341162068957" y2="3.55135797551276"/>
    <line x1="1.57341162068957" y1="3.55135797551276" x2="1.56971391314151" y2="3.54960909009098"/>
    <line x1="1.56971391314151" y1="3.54960909009098" x2="1.56607540731935" y2="3.54774015544485"/>
    <line x1="1.56607540731935" y1="3.54774015544485" x2="1.56249999942625" y2="3.54575317287638"/>
    <line x1="1.56249999942625" y1="3.54575317287638" x2="1.55899151809854" y2="3.5436502700963"/>
    <line x1="1.55899151809854" y1="3.5436502700963" x2="1.55555372030588" y2="3.54143369894555"/>
    <line x1="1.55555372030588" y1="3.54143369894555" x2="1.55219028732829" y2="3.53910583298406"/>
    <line x1="1.55219028732829" y1="3.53910583298406" x2="1.54890482081402" y2="3.536669164949"/>
    <line x1="1.54890482081402" y1="3.536669164949" x2="1.54570083892293" y2="3.53412630408553"/>
    <line x1="1.54570083892293" y1="3.53412630408553" x2="1.54258177255906" y2="3.53147997335276"/>
    <line x1="1.54258177255906" y1="3.53147997335276" x2="1.5395509616968" y2="3.52873300650792"/>
    <line x1="1.5395509616968" y1="3.52873300650792" x2="1.53661165180434" y2="3.52588834507191"/>
    <line x1="1.53661165180434" y1="3.52588834507191" x2="1.53376699036832" y2="3.52294903517945"/>
    <line x1="1.53376699036832" y1="3.52294903517945" x2="1.53102002352349" y2="3.51991822431719"/>
    <line x1="1.53102002352349" y1="3.51991822431719" x2="1.52837369279072" y2="3.51679915795332"/>
    <line x1="1.52837369279072" y1="3.51679915795332" x2="1.52583083192725" y2="3.51359517606222"/>
    <line x1="1.52583083192725" y1="3.51359517606222" x2="1.52339416389218" y2="3.51030970954796"/>
    <line x1="1.52339416389218" y1="3.51030970954796" x2="1.52106629793069" y2="3.50694627657036"/>
    <line x1="1.52106629793069" y1="3.50694627657036" x2="1.51884972677994" y2="3.50350847877772"/>
    <line x1="1.51884972677994" y1="3.50350847877772" x2="1.51674682399986" y2="3.49999999745"/>
    <line x1="1.51674682399986" y1="3.49999999745" x2="1.5147598414314" y2="3.49642458955689"/>
    <line x1="1.5147598414314" y1="3.49642458955689" x2="1.51289090678527" y2="3.49278608373473"/>
    <line x1="1.51289090678527" y1="3.49278608373473" x2="1.51114202136349" y2="3.48908837618668"/>
    <line x1="1.51114202136349" y1="3.48908837618668" x2="1.50951505791638" y2="3.48533542651059"/>
    <line x1="1.50951505791638" y1="3.48533542651059" x2="1.50801175863717" y2="3.48153125345899"/>
    <line x1="1.50801175863717" y1="3.48153125345899" x2="1.50663373329635" y2="3.47767993063566"/>
    <line x1="1.50663373329635" y1="3.47767993063566" x2="1.50538245751798" y2="3.47378558213354"/>
    <line x1="1.50538245751798" y1="3.47378558213354" x2="1.50425927119952" y2="3.46985237811856"/>
    <line x1="1.50425927119952" y1="3.46985237811856" x2="1.503265377077" y2="3.46588453036409"/>
    <line x1="1.503265377077" y1="3.46588453036409" x2="1.50240183943715" y2="3.46188628774089"/>
    <line x1="1.50240183943715" y1="3.46188628774089" x2="1.50166958297768" y2="3.4578619316673"/>
    <line x1="1.50166958297768" y1="3.4578619316673" x2="1.50106939181719" y2="3.45381577152461"/>
    <line x1="1.50106939181719" y1="3.45381577152461" x2="1.50060190865536" y2="3.44975214004245"/>
    <line x1="1.50060190865536" y1="3.44975214004245" x2="1.5002676340849" y2="3.44567538865918"/>
    <line x1="1.5002676340849" y1="3.44567538865918" x2="1.50006692605538" y2="3.4415898828623"/>
    <line x1="1.50006692605538" y1="3.4415898828623" x2="1.49999999949" y2="3.43749999751375"/>
  </g>
</svg>
