<?xml version="1.0" standalone="no"?>
<!DOCTYPE svg PUBLIC "-//W3C//DTD SVG 1.1//EN" "http://www.w3.org/Graphics/SVG/1.1/DTD/svg11.dtd">
<svg width="4.87499999706749in" height="7.8749999940075in"
 viewBox="0 0 4.87499999706749 7.8749999940075"
 xmlns="http://www.w3.org/2000/svg" version="1.1"
 xmlns:xlink="http://www.w3.org/1999/xlink">
<desc>Output from Flights of Ideas SVG Sketchup Plugin</desc>

  <g id="face0" fill="none" stroke="rgb(0,0,0)" stroke-width=".001" stroke-miterlimit="4" stroke-dasharray="none" stroke-linejoin="round" stroke-linecap="round">
    <line x1="3.87499999706749" y1="6.74999999413499" x2="3.87499999706749" y2="6.01949999488011"/>
    <line x1="3.87499999706749" y1="6.01949999488011" x2="3.74999999719499" y2="6.01949999488011"/>
    <line x1="3.74999999719499" y1="6.01949999488011" x2="3.74999999719499" y2="6.10937499478843"/>
    <line x1="3.74999999719499" y1="6.10937499478843" x2="3.6249999973225" y2="6.10937499478843"/>
    <line x1="3.6249999973225" y1="6.10937499478843" x2="3.6249999973225" y2="5.76562499513906"/>
    <line x1="3.6249999973225" y1="5.76562499513906" x2="3.74999999719499" y2="5.76562499513906"/>
    <line x1="3.74999999719499" y1="5.76562499513906" x2="3.74999999719499" y2="5.85549999504738"/>
    <line x1="3.74999999719499" y1="5.85549999504738" x2="3.87499999706749" y2="5.85549999504738"/>
    <line x1="3.87499999706749" y1="5.85549999504738" x2="3.87499999706749" y2="2.01949999896011"/>
    <line x1="3.87499999706749" y1="2.01949999896011" x2="3.74999999719499" y2="2.01949999896011"/>
    <line x1="3.74999999719499" y1="2.01949999896011" x2="3.74999999719499" y2="2.10937499886843"/>
    <line x1="3.74999999719499" y1="2.10937499886843" x2="3.6249999973225" y2="2.10937499886843"/>
    <line x1="3.6249999973225" y1="2.10937499886843" x2="3.6249999973225" y2="1.76562499921906"/>
    <line x1="3.6249999973225" y1="1.76562499921906" x2="3.74999999719499" y2="1.76562499921906"/>
    <line x1="3.74999999719499" y1="1.76562499921906" x2="3.74999999719499" y2="1.85549999912738"/>
    <line x1="3.74999999719499" y1="1.85549999912738" x2="3.87499999706749" y2="1.85549999912738"/>
    <line x1="3.87499999706749" y1="1.85549999912738" x2="3.87499999706749" y2="1.12499999987251"/>
    <line x1="3.87499999706749" y1="1.12499999987251" x2="3.49999999745" y2="1.12499999987251"/>
    <line x1="3.49999999745" y1="1.12499999987251" x2="3.49999999745" y2="1.0"/>
    <line x1="3.49999999745" y1="1.0" x2="2.99999999796" y2="1.0"/>
    <line x1="2.99999999796" y1="1.0" x2="2.99999999796" y2="1.12499999987251"/>
    <line x1="2.99999999796" y1="1.12499999987251" x2="2.49999999847" y2="1.12499999987251"/>
    <line x1="2.49999999847" y1="1.12499999987251" x2="2.49999999847" y2="1.00000000000001"/>
    <line x1="2.49999999847" y1="1.00000000000001" x2="1.99999999897999" y2="1.00000000000001"/>
    <line x1="1.99999999897999" y1="1.00000000000001" x2="1.99999999897999" y2="1.12499999987251"/>
    <line x1="1.99999999897999" y1="1.12499999987251" x2="1.49999999949" y2="1.12499999987251"/>
    <line x1="1.49999999949" y1="1.12499999987251" x2="1.49999999949" y2="1.00000000000001"/>
    <line x1="1.49999999949" y1="1.00000000000001" x2="1.0" y2="1.00000000000002"/>
    <line x1="1.0" y1="1.00000000000002" x2="1.0" y2="1.68749999929875"/>
    <line x1="1.0" y1="1.68749999929875" x2="1.12499999987249" y2="1.68749999929875"/>
    <line x1="1.12499999987249" y1="1.68749999929875" x2="1.12499999987249" y2="2.18749999878875"/>
    <line x1="1.12499999987249" y1="2.18749999878875" x2="1.0" y2="2.18749999878875"/>
    <line x1="1.0" y1="2.18749999878875" x2="1.0" y2="2.68749999827875"/>
    <line x1="1.0" y1="2.68749999827875" x2="1.12499999987249" y2="2.68749999827875"/>
    <line x1="1.12499999987249" y1="2.68749999827875" x2="1.12499999987249" y2="3.18749999776875"/>
    <line x1="1.12499999987249" y1="3.18749999776875" x2="1.0" y2="3.18749999776875"/>
    <line x1="1.0" y1="3.18749999776875" x2="1.0" y2="3.68749999725875"/>
    <line x1="1.0" y1="3.68749999725875" x2="1.12499999987249" y2="3.68749999725875"/>
    <line x1="1.12499999987249" y1="3.68749999725875" x2="1.12499999987249" y2="4.18749999674875"/>
    <line x1="1.12499999987249" y1="4.18749999674875" x2="1.0" y2="4.18749999674875"/>
    <line x1="1.0" y1="4.18749999674875" x2="1.0" y2="4.68749999623875"/>
    <line x1="1.0" y1="4.68749999623875" x2="1.12499999987249" y2="4.68749999623875"/>
    <line x1="1.12499999987249" y1="4.68749999623875" x2="1.12499999987249" y2="5.18749999572875"/>
    <line x1="1.12499999987249" y1="5.18749999572875" x2="1.0" y2="5.18749999572875"/>
    <line x1="1.0" y1="5.18749999572875" x2="1.0" y2="5.68749999521875"/>
    <line x1="1.0" y1="5.68749999521875" x2="1.12499999987249" y2="5.68749999521875"/>
    <line x1="1.12499999987249" y1="5.68749999521875" x2="1.12499999987249" y2="6.18749999470875"/>
    <line x1="1.12499999987249" y1="6.18749999470875" x2="1.0" y2="6.18749999470875"/>
    <line x1="1.0" y1="6.18749999470875" x2="1.0" y2="6.8749999940075"/>
    <line x1="1.0" y1="6.8749999940075" x2="1.49999999949" y2="6.8749999940075"/>
    <line x1="1.49999999949" y1="6.8749999940075" x2="1.49999999949" y2="6.74999999413499"/>
    <line x1="1.49999999949" y1="6.74999999413499" x2="1.99999999897999" y2="6.74999999413499"/>
    <line x1="1.99999999897999" y1="6.74999999413499" x2="1.99999999897999" y2="6.8749999940075"/>
    <line x1="1.99999999897999" y1="6.8749999940075" x2="2.49999999847" y2="6.87499999400749"/>
    <line x1="2.49999999847" y1="6.87499999400749" x2="2.49999999847" y2="6.74999999413499"/>
    <line x1="2.49999999847" y1="6.74999999413499" x2="2.99999999796" y2="6.74999999413499"/>
    <line x1="2.99999999796" y1="6.74999999413499" x2="2.99999999796" y2="6.8749999940075"/>
    <line x1="2.99999999796" y1="6.8749999940075" x2="3.49999999745" y2="6.8749999940075"/>
    <line x1="3.49999999745" y1="6.8749999940075" x2="3.49999999745" y2="6.74999999413499"/>
    <line x1="3.49999999745" y1="6.74999999413499" x2="3.87499999706749" y2="6.74999999413499"/>
  </g>
</svg>
